# Blender 3.6.1
# www.blender.org
mtllib BatePoligon.mtl
o Cube
v 0.204734 3.289131 -0.190634
v 0.124084 0.188344 -0.109984
v 0.204734 3.289131 0.188330
v 0.124084 0.188344 0.107680
v -0.174229 3.289131 -0.190634
v -0.093579 0.188344 -0.109984
v -0.174229 3.289131 0.188330
v -0.093579 0.188344 0.107680
v 0.111592 3.402028 0.095187
v -0.081087 3.402028 0.095187
v 0.111592 3.402028 -0.097491
v -0.081087 3.402028 -0.097491
v -0.187828 0.002945 -0.204233
v -0.187828 0.002945 0.201929
v 0.218333 0.002945 -0.204233
v 0.218333 0.002945 0.201929
v 0.015253 0.002945 -0.001152
vn -0.0000 0.6364 0.7714
vn -0.0000 -0.0260 0.9997
vn -0.9997 -0.0260 -0.0000
vn -0.0000 0.4532 -0.8914
vn 0.9997 -0.0260 -0.0000
vn -0.0000 -0.0260 -0.9997
vn -0.0000 1.0000 -0.0000
vn -0.7714 0.6364 -0.0000
vn 0.7714 0.6364 -0.0000
vn -0.0000 0.6364 -0.7714
vn -0.0000 -1.0000 -0.0000
vn -0.0000 0.4532 0.8914
vn -0.8914 0.4532 -0.0000
vn 0.8914 0.4532 -0.0000
vt 0.064991 0.028568
vt 0.219509 0.501059
vt 0.064991 0.655033
vt 0.048263 0.682649
vt 0.430852 0.987160
vt 0.148318 0.982776
vt 0.376049 0.184224
vt 0.530360 0.656081
vt 0.376049 0.502314
vt 0.591757 0.802928
vt 0.968548 0.426136
vt 0.968548 0.802928
vt 0.219509 0.182542
vt 0.530360 0.030456
vt 0.978469 0.381471
vt 0.800515 0.203517
vt 0.622560 0.025562
vt 0.978469 0.025562
vt 0.540171 0.690282
vt 0.591757 0.426136
vt 0.622560 0.381471
s 0
usemtl Material
f 3/1/1 10/2/1 7/3/1
f 3/4/2 8/5/2 4/6/2
f 7/4/3 6/5/3 8/6/3
f 2/7/4 13/8/4 6/9/4
f 1/4/5 4/5/5 2/6/5
f 5/4/6 2/5/6 6/6/6
f 12/10/7 9/11/7 11/12/7
f 5/3/8 10/13/8 12/2/8
f 1/1/9 9/2/9 3/3/9
f 5/8/10 11/7/10 1/14/10
f 15/15/11 17/16/11 14/17/11 13/18/11
f 8/9/12 16/14/12 4/7/12
f 6/7/13 14/8/13 8/9/13
f 4/7/14 15/8/14 2/9/14
f 3/1/1 9/13/1 10/2/1
f 3/4/2 7/19/2 8/5/2
f 7/4/3 5/19/3 6/5/3
f 2/7/4 15/14/4 13/8/4
f 1/4/5 3/19/5 4/5/5
f 5/4/6 1/19/6 2/5/6
f 12/10/7 10/20/7 9/11/7
f 5/3/8 7/1/8 10/13/8
f 1/1/9 11/13/9 9/2/9
f 5/8/10 12/9/10 11/7/10
f 15/15/11 16/21/11 14/17/11 17/16/11
f 8/9/12 14/8/12 16/14/12
f 6/7/13 13/14/13 14/8/13
f 4/7/14 16/14/14 15/8/14
