# Blender 4.2.3 LTS
# www.blender.org
mtllib Aguas.mtl
o Cube
v 4.000000 0.147251 -6.067562
v 4.000000 0.000000 -6.067562
v 4.000000 0.147251 3.000000
v 4.000000 0.000000 3.000000
v -3.847120 0.147251 -6.067562
v -3.847120 0.000000 -6.067562
v -3.847120 0.147251 3.000000
v -3.847120 0.000000 3.000000
v -3.847120 0.000000 -1.533781
v 4.000000 0.147251 -1.533781
v -3.847120 0.147251 -1.533781
v 4.000000 0.000000 -1.533781
v -3.847120 0.000000 0.733109
v 4.000000 0.147251 0.733109
v -3.847120 0.147251 0.733109
v 4.000000 0.000000 0.733109
v -3.847120 0.147251 -3.800672
v 4.000000 0.000000 -3.800672
v -3.847120 0.000000 -3.800672
v 4.000000 0.147251 -3.800672
v -3.847120 0.147251 -0.400336
v 4.000000 0.000000 -0.400336
v -3.847120 0.000000 -0.400336
v 4.000000 0.147251 -0.400336
v -3.847120 0.000000 -2.667226
v 4.000000 0.147251 -2.667226
v -3.847120 0.147251 -2.667226
v 4.000000 0.000000 -2.667226
v -3.847120 0.147251 -4.934117
v 4.000000 0.000000 -4.934117
v -3.847120 0.000000 -4.934117
v 4.000000 0.147251 -4.934117
v -3.847120 0.000000 1.866555
v 4.000000 0.147251 1.866555
v -3.847120 0.147251 1.866555
v 4.000000 0.000000 1.866555
v -3.847120 0.000000 0.166387
v 4.000000 0.147251 0.166387
v -3.847120 0.147251 0.166387
v 4.000000 0.000000 0.166387
v -3.847120 0.147251 1.299832
v 4.000000 0.000000 1.299832
v -3.847120 0.000000 1.299832
v 4.000000 0.147251 1.299832
v -3.847120 0.000000 2.433277
v 4.000000 0.147251 2.433277
v -3.847120 0.147251 2.433277
v 4.000000 0.000000 2.433277
v -3.847120 0.147251 -0.967058
v 4.000000 0.000000 -0.967058
v -3.847120 0.000000 -0.967058
v 4.000000 0.147251 -0.967058
v -3.847120 0.000000 -2.100504
v 4.000000 0.147251 -2.100504
v -3.847120 0.147251 -2.100504
v 4.000000 0.000000 -2.100504
v -3.847120 0.147251 -3.233949
v 4.000000 0.000000 -3.233949
v -3.847120 0.000000 -3.233949
v 4.000000 0.147251 -3.233949
v -3.847120 0.000000 -4.367394
v 4.000000 0.147251 -4.367394
v -3.847120 0.147251 -4.367394
v 4.000000 0.000000 -4.367394
v -3.847120 0.147251 -5.500839
v 4.000000 0.000000 -5.500839
v -3.847120 0.000000 -5.500839
v 4.000000 0.147251 -5.500839
v -3.847120 0.315301 2.149916
v 4.000000 0.000000 2.149916
v -3.847120 0.000000 2.149916
v 4.000000 0.315301 2.149916
v -3.847120 0.000000 1.583193
v 4.000000 0.298009 1.583193
v -3.847120 0.298009 1.583193
v 4.000000 0.000000 1.583193
v -3.847120 0.223945 1.016471
v 4.000000 0.000000 1.016471
v -3.847120 0.000000 1.016471
v 4.000000 0.223945 1.016471
v -3.847120 0.000000 0.449748
v 4.000000 0.328648 0.449748
v -3.847120 0.328648 0.449748
v 4.000000 0.000000 0.449748
v -3.847120 0.239557 -0.116974
v 4.000000 0.000000 -0.116974
v -3.847120 0.000000 -0.116974
v 4.000000 0.239557 -0.116974
v -3.847120 0.000000 -0.683697
v 4.000000 0.343909 -0.683697
v -3.847120 0.343909 -0.683697
v 4.000000 0.000000 -0.683697
v -3.847120 0.273412 -1.250420
v 4.000000 0.000000 -1.250420
v -3.847120 0.000000 -1.250420
v 4.000000 0.273412 -1.250420
v -3.847120 0.000000 -1.817142
v 4.000000 0.310735 -1.817142
v -3.847120 0.310735 -1.817142
v 4.000000 0.000000 -1.817142
v -3.847120 0.202175 -2.383865
v 4.000000 0.000000 -2.383865
v -3.847120 0.000000 -2.383865
v 4.000000 0.202175 -2.383865
v -3.847120 0.000000 -2.950588
v 4.000000 0.285588 -2.950588
v -3.847120 0.285588 -2.950588
v 4.000000 0.000000 -2.950588
v -3.847120 0.240017 -3.517310
v 4.000000 0.000000 -3.517310
v -3.847120 0.000000 -3.517310
v 4.000000 0.240017 -3.517310
v -3.847120 0.000000 -4.084033
v 4.000000 0.278357 -4.084033
v -3.847120 0.278357 -4.084033
v 4.000000 0.000000 -4.084033
v -3.847120 0.251038 -4.650755
v 4.000000 0.000000 -4.650755
v -3.847120 0.000000 -4.650755
v 4.000000 0.251038 -4.650755
v -3.847120 0.000000 -5.217478
v 4.000000 0.242309 -5.217478
v -3.847120 0.242309 -5.217478
v 4.000000 0.000000 -5.217478
v -3.847120 0.214285 -5.784201
v 4.000000 0.000000 -5.784201
v -3.847120 0.000000 -5.784201
v 4.000000 0.214285 -5.784201
v -3.847120 0.000000 2.716639
v 4.000000 0.254051 2.716639
v -3.847120 0.254051 2.716639
v 4.000000 0.000000 2.716639
vn -0.0000 0.9357 0.3527
vn -0.0000 -0.0000 1.0000
vn -1.0000 -0.0000 -0.0000
vn -0.0000 -1.0000 -0.0000
vn 1.0000 -0.0000 -0.0000
vn -0.0000 -0.0000 -1.0000
vn -0.0000 0.8662 0.4997
vn -0.0000 0.8422 0.5392
vn -0.0000 0.9076 0.4199
vn -0.0000 0.8215 0.5702
vn -0.0000 0.8986 0.4387
vn -0.0000 0.9481 0.3180
vn -0.0000 0.8828 0.4697
vn -0.0000 0.9508 0.3097
vn -0.0000 0.9653 0.2613
vn -0.0000 0.8601 0.5101
vn -0.0000 0.9135 0.4067
vn -0.0000 0.9817 0.1903
vn -0.0000 0.9504 0.3111
vn -0.0000 0.9390 0.3439
vn -0.0000 0.9731 0.2302
vn -0.0000 0.8601 -0.5101
vn -0.0000 0.8828 -0.4697
vn -0.0000 0.9653 -0.2613
vn -0.0000 0.8422 -0.5392
vn -0.0000 0.9508 -0.3097
vn -0.0000 0.8215 -0.5702
vn -0.0000 0.9135 -0.4067
vn -0.0000 0.8662 -0.4997
vn -0.0000 0.9817 -0.1903
vn -0.0000 0.8986 -0.4387
vn -0.0000 0.9504 -0.3111
vn -0.0000 0.9076 -0.4199
vn -0.0000 0.9390 -0.3439
vn -0.0000 0.9481 -0.3180
vn -0.0000 0.9731 -0.2302
vn -0.0000 0.9357 -0.3527
vt 0.875000 0.742188
vt 0.625000 0.750000
vt 0.625000 0.742188
vt 0.375000 1.000000
vt 0.375000 0.750000
vt 0.375000 0.242188
vt 0.625000 0.250000
vt 0.375000 0.250000
vt 0.375000 0.742188
vt 0.125000 0.750000
vt 0.125000 0.742188
vt 0.375000 0.500000
vt 0.375000 0.617188
vt 0.625000 0.625000
vt 0.375000 0.625000
vt 0.125000 0.625000
vt 0.125000 0.617188
vt 0.375000 0.117188
vt 0.625000 0.125000
vt 0.375000 0.125000
vt 0.875000 0.617188
vt 0.625000 0.617188
vt 0.375000 0.054688
vt 0.625000 0.062500
vt 0.375000 0.062500
vt 0.375000 0.679688
vt 0.625000 0.687500
vt 0.375000 0.687500
vt 0.125000 0.687500
vt 0.125000 0.679688
vt 0.875000 0.679688
vt 0.625000 0.679688
vt 0.875000 0.554688
vt 0.625000 0.562500
vt 0.625000 0.554688
vt 0.375000 0.554688
vt 0.125000 0.562500
vt 0.125000 0.554688
vt 0.375000 0.562500
vt 0.375000 0.179688
vt 0.625000 0.187500
vt 0.375000 0.187500
vt 0.875000 0.648438
vt 0.625000 0.656250
vt 0.625000 0.648438
vt 0.375000 0.648438
vt 0.125000 0.656250
vt 0.125000 0.648438
vt 0.375000 0.656250
vt 0.375000 0.085938
vt 0.625000 0.093750
vt 0.375000 0.093750
vt 0.375000 0.148438
vt 0.625000 0.156250
vt 0.375000 0.156250
vt 0.875000 0.585938
vt 0.625000 0.593750
vt 0.625000 0.585938
vt 0.375000 0.585938
vt 0.125000 0.593750
vt 0.125000 0.585938
vt 0.375000 0.593750
vt 0.375000 0.523438
vt 0.625000 0.531250
vt 0.375000 0.531250
vt 0.125000 0.531250
vt 0.125000 0.523438
vt 0.875000 0.523438
vt 0.625000 0.523438
vt 0.375000 0.210938
vt 0.625000 0.218750
vt 0.375000 0.218750
vt 0.375000 0.023438
vt 0.625000 0.031250
vt 0.375000 0.031250
vt 0.375000 0.710938
vt 0.625000 0.718750
vt 0.375000 0.718750
vt 0.125000 0.718750
vt 0.125000 0.710938
vt 0.875000 0.710938
vt 0.625000 0.710938
vt 0.375000 0.070312
vt 0.625000 0.078125
vt 0.375000 0.078125
vt 0.875000 0.664062
vt 0.625000 0.671875
vt 0.625000 0.664062
vt 0.375000 0.664062
vt 0.125000 0.671875
vt 0.125000 0.664062
vt 0.375000 0.671875
vt 0.875000 0.695312
vt 0.625000 0.703125
vt 0.625000 0.695312
vt 0.375000 0.695312
vt 0.125000 0.703125
vt 0.125000 0.695312
vt 0.375000 0.703125
vt 0.375000 0.039062
vt 0.625000 0.046875
vt 0.375000 0.046875
vt 0.375000 0.007812
vt 0.625000 0.015625
vt 0.375000 0.015625
vt 0.375000 0.726562
vt 0.625000 0.734375
vt 0.375000 0.734375
vt 0.125000 0.734375
vt 0.125000 0.726562
vt 0.875000 0.726562
vt 0.625000 0.726562
vt 0.375000 0.632812
vt 0.625000 0.640625
vt 0.375000 0.640625
vt 0.125000 0.640625
vt 0.125000 0.632812
vt 0.875000 0.632812
vt 0.625000 0.632812
vt 0.375000 0.101562
vt 0.625000 0.109375
vt 0.375000 0.109375
vt 0.375000 0.132812
vt 0.625000 0.140625
vt 0.375000 0.140625
vt 0.875000 0.601562
vt 0.625000 0.609375
vt 0.625000 0.601562
vt 0.375000 0.601562
vt 0.125000 0.609375
vt 0.125000 0.601562
vt 0.375000 0.609375
vt 0.375000 0.570312
vt 0.625000 0.578125
vt 0.375000 0.578125
vt 0.125000 0.578125
vt 0.125000 0.570312
vt 0.875000 0.570312
vt 0.625000 0.570312
vt 0.375000 0.164062
vt 0.625000 0.171875
vt 0.375000 0.171875
vt 0.375000 0.195312
vt 0.625000 0.203125
vt 0.375000 0.203125
vt 0.375000 0.539062
vt 0.625000 0.546875
vt 0.375000 0.546875
vt 0.125000 0.546875
vt 0.125000 0.539062
vt 0.875000 0.539062
vt 0.625000 0.539062
vt 0.875000 0.507812
vt 0.625000 0.515625
vt 0.625000 0.507812
vt 0.375000 0.507812
vt 0.125000 0.515625
vt 0.125000 0.507812
vt 0.375000 0.515625
vt 0.375000 0.226562
vt 0.625000 0.234375
vt 0.375000 0.234375
vt 0.875000 0.718750
vt 0.875000 0.703125
vt 0.875000 0.687500
vt 0.875000 0.671875
vt 0.875000 0.656250
vt 0.875000 0.640625
vt 0.875000 0.625000
vt 0.875000 0.609375
vt 0.875000 0.593750
vt 0.875000 0.578125
vt 0.875000 0.562500
vt 0.875000 0.546875
vt 0.875000 0.531250
vt 0.875000 0.515625
vt 0.625000 0.500000
vt 0.125000 0.500000
vt 0.875000 0.500000
vt 0.625000 0.000000
vt 0.375000 0.000000
vt 0.875000 0.734375
vt 0.875000 0.750000
vt 0.625000 1.000000
vt 0.625000 0.242188
vt 0.625000 0.117188
vt 0.625000 0.054688
vt 0.625000 0.179688
vt 0.625000 0.085938
vt 0.625000 0.148438
vt 0.625000 0.210938
vt 0.625000 0.023438
vt 0.625000 0.070312
vt 0.625000 0.039062
vt 0.625000 0.007812
vt 0.625000 0.101562
vt 0.625000 0.132812
vt 0.625000 0.164062
vt 0.625000 0.195312
vt 0.625000 0.226562
s 0
usemtl Material
f 131/1/1 3/2/1 130/3/1
f 3/2/2 8/4/2 4/5/2
f 127/6/3 5/7/3 6/8/3
f 132/9/4 8/10/4 129/11/4
f 132/9/5 3/2/5 4/5/5
f 5/7/6 2/12/6 6/8/6
f 100/13/5 10/14/5 12/15/5
f 100/13/4 9/16/4 97/17/4
f 95/18/3 11/19/3 9/20/3
f 99/21/7 10/14/7 98/22/7
f 79/23/3 15/24/3 13/25/3
f 84/26/5 14/27/5 16/28/5
f 84/26/4 13/29/4 81/30/4
f 83/31/8 14/27/8 82/32/8
f 115/33/9 20/34/9 114/35/9
f 116/36/4 19/37/4 113/38/4
f 116/36/5 20/34/5 18/39/5
f 111/40/3 17/41/3 19/42/3
f 91/43/10 24/44/10 90/45/10
f 92/46/4 23/47/4 89/48/4
f 92/46/5 24/44/5 22/49/5
f 87/50/3 21/51/3 23/52/3
f 103/53/3 27/54/3 25/55/3
f 107/56/11 26/57/11 106/58/11
f 108/59/4 25/60/4 105/61/4
f 108/59/5 26/57/5 28/62/5
f 124/63/5 32/64/5 30/65/5
f 124/63/4 31/66/4 121/67/4
f 123/68/12 32/64/12 122/69/12
f 119/70/3 29/71/3 31/72/3
f 71/73/3 35/74/3 33/75/3
f 76/76/5 34/77/5 36/78/5
f 76/76/4 33/79/4 73/80/4
f 75/81/13 34/77/13 74/82/13
f 81/83/3 39/84/3 37/85/3
f 85/86/14 38/87/14 88/88/14
f 86/89/4 37/90/4 87/91/4
f 86/89/5 38/87/5 40/92/5
f 77/93/15 44/94/15 80/95/15
f 78/96/4 43/97/4 79/98/4
f 78/96/5 44/94/5 42/99/5
f 73/100/3 41/101/3 43/102/3
f 129/103/3 47/104/3 45/105/3
f 70/106/5 46/107/5 48/108/5
f 70/106/4 45/109/4 71/110/4
f 69/111/16 46/107/16 72/112/16
f 94/113/5 52/114/5 50/115/5
f 94/113/4 51/116/4 95/117/4
f 93/118/17 52/114/17 96/119/17
f 89/120/3 49/121/3 51/122/3
f 97/123/3 55/124/3 53/125/3
f 101/126/18 54/127/18 104/128/18
f 102/129/4 53/130/4 103/131/4
f 102/129/5 54/127/5 56/132/5
f 110/133/5 60/134/5 58/135/5
f 110/133/4 59/136/4 111/137/4
f 109/138/19 60/134/19 112/139/19
f 105/140/3 57/141/3 59/142/3
f 113/143/3 63/144/3 61/145/3
f 118/146/5 62/147/5 64/148/5
f 118/146/4 61/149/4 119/150/4
f 117/151/20 62/147/20 120/152/20
f 125/153/21 68/154/21 128/155/21
f 126/156/4 67/157/4 127/158/4
f 126/156/5 68/154/5 66/159/5
f 121/160/3 65/161/3 67/162/3
f 35/163/22 72/112/22 34/77/22
f 36/78/4 71/110/4 33/79/4
f 34/77/5 70/106/5 36/78/5
f 47/104/3 71/73/3 45/105/3
f 35/74/3 73/100/3 33/75/3
f 41/164/23 74/82/23 44/94/23
f 42/99/4 73/80/4 43/97/4
f 44/94/5 76/76/5 42/99/5
f 14/27/5 78/96/5 16/28/5
f 16/28/4 79/98/4 13/29/4
f 15/165/24 80/95/24 14/27/24
f 41/101/3 79/23/3 43/102/3
f 15/24/3 81/83/3 13/25/3
f 39/166/25 82/32/25 38/87/25
f 40/92/4 81/30/4 37/90/4
f 38/87/5 84/26/5 40/92/5
f 24/44/5 86/89/5 22/49/5
f 22/49/4 87/91/4 23/47/4
f 21/167/26 88/88/26 24/44/26
f 39/84/3 87/50/3 37/85/3
f 21/51/3 89/120/3 23/52/3
f 52/114/5 92/46/5 50/115/5
f 50/115/4 89/48/4 51/116/4
f 49/168/27 90/45/27 52/114/27
f 11/169/28 96/119/28 10/14/28
f 12/15/4 95/117/4 9/16/4
f 10/14/5 94/113/5 12/15/5
f 49/121/3 95/18/3 51/122/3
f 11/19/3 97/123/3 9/20/3
f 55/170/29 98/22/29 54/127/29
f 56/132/4 97/17/4 53/130/4
f 54/127/5 100/13/5 56/132/5
f 26/57/5 102/129/5 28/62/5
f 28/62/4 103/131/4 25/60/4
f 27/171/30 104/128/30 26/57/30
f 55/124/3 103/53/3 53/125/3
f 27/54/3 105/140/3 25/55/3
f 60/134/5 108/59/5 58/135/5
f 58/135/4 105/61/4 59/136/4
f 57/172/31 106/58/31 60/134/31
f 17/173/32 112/139/32 20/34/32
f 18/39/4 111/137/4 19/37/4
f 20/34/5 110/133/5 18/39/5
f 57/141/3 111/40/3 59/142/3
f 17/41/3 113/143/3 19/42/3
f 62/147/5 116/36/5 64/148/5
f 64/148/4 113/38/4 61/149/4
f 63/174/33 114/35/33 62/147/33
f 29/175/34 120/152/34 32/64/34
f 30/65/4 119/150/4 31/66/4
f 32/64/5 118/146/5 30/65/5
f 63/144/3 119/70/3 61/145/3
f 29/71/3 121/160/3 31/72/3
f 65/176/35 122/69/35 68/154/35
f 66/159/4 121/67/4 67/157/4
f 68/154/5 124/63/5 66/159/5
f 1/177/5 126/156/5 2/12/5
f 2/12/4 127/158/4 6/178/4
f 5/179/36 128/155/36 1/177/36
f 65/161/3 127/6/3 67/162/3
f 7/180/3 129/103/3 8/181/3
f 46/107/5 132/9/5 48/108/5
f 48/108/4 129/11/4 45/109/4
f 47/182/37 130/3/37 46/107/37
f 131/1/1 7/183/1 3/2/1
f 3/2/2 7/184/2 8/4/2
f 127/6/3 125/185/3 5/7/3
f 132/9/4 4/5/4 8/10/4
f 132/9/5 130/3/5 3/2/5
f 5/7/6 1/177/6 2/12/6
f 100/13/5 98/22/5 10/14/5
f 100/13/4 12/15/4 9/16/4
f 95/18/3 93/186/3 11/19/3
f 99/21/7 11/169/7 10/14/7
f 79/23/3 77/187/3 15/24/3
f 84/26/5 82/32/5 14/27/5
f 84/26/4 16/28/4 13/29/4
f 83/31/8 15/165/8 14/27/8
f 115/33/9 17/173/9 20/34/9
f 116/36/4 18/39/4 19/37/4
f 116/36/5 114/35/5 20/34/5
f 111/40/3 109/188/3 17/41/3
f 91/43/10 21/167/10 24/44/10
f 92/46/4 22/49/4 23/47/4
f 92/46/5 90/45/5 24/44/5
f 87/50/3 85/189/3 21/51/3
f 103/53/3 101/190/3 27/54/3
f 107/56/11 27/171/11 26/57/11
f 108/59/4 28/62/4 25/60/4
f 108/59/5 106/58/5 26/57/5
f 124/63/5 122/69/5 32/64/5
f 124/63/4 30/65/4 31/66/4
f 123/68/12 29/175/12 32/64/12
f 119/70/3 117/191/3 29/71/3
f 71/73/3 69/192/3 35/74/3
f 76/76/5 74/82/5 34/77/5
f 76/76/4 36/78/4 33/79/4
f 75/81/13 35/163/13 34/77/13
f 81/83/3 83/193/3 39/84/3
f 85/86/14 39/166/14 38/87/14
f 86/89/4 40/92/4 37/90/4
f 86/89/5 88/88/5 38/87/5
f 77/93/15 41/164/15 44/94/15
f 78/96/4 42/99/4 43/97/4
f 78/96/5 80/95/5 44/94/5
f 73/100/3 75/194/3 41/101/3
f 129/103/3 131/195/3 47/104/3
f 70/106/5 72/112/5 46/107/5
f 70/106/4 48/108/4 45/109/4
f 69/111/16 47/182/16 46/107/16
f 94/113/5 96/119/5 52/114/5
f 94/113/4 50/115/4 51/116/4
f 93/118/17 49/168/17 52/114/17
f 89/120/3 91/196/3 49/121/3
f 97/123/3 99/197/3 55/124/3
f 101/126/18 55/170/18 54/127/18
f 102/129/4 56/132/4 53/130/4
f 102/129/5 104/128/5 54/127/5
f 110/133/5 112/139/5 60/134/5
f 110/133/4 58/135/4 59/136/4
f 109/138/19 57/172/19 60/134/19
f 105/140/3 107/198/3 57/141/3
f 113/143/3 115/199/3 63/144/3
f 118/146/5 120/152/5 62/147/5
f 118/146/4 64/148/4 61/149/4
f 117/151/20 63/174/20 62/147/20
f 125/153/21 65/176/21 68/154/21
f 126/156/4 66/159/4 67/157/4
f 126/156/5 128/155/5 68/154/5
f 121/160/3 123/200/3 65/161/3
f 35/163/22 69/111/22 72/112/22
f 36/78/4 70/106/4 71/110/4
f 34/77/5 72/112/5 70/106/5
f 47/104/3 69/192/3 71/73/3
f 35/74/3 75/194/3 73/100/3
f 41/164/23 75/81/23 74/82/23
f 42/99/4 76/76/4 73/80/4
f 44/94/5 74/82/5 76/76/5
f 14/27/5 80/95/5 78/96/5
f 16/28/4 78/96/4 79/98/4
f 15/165/24 77/93/24 80/95/24
f 41/101/3 77/187/3 79/23/3
f 15/24/3 83/193/3 81/83/3
f 39/166/25 83/31/25 82/32/25
f 40/92/4 84/26/4 81/30/4
f 38/87/5 82/32/5 84/26/5
f 24/44/5 88/88/5 86/89/5
f 22/49/4 86/89/4 87/91/4
f 21/167/26 85/86/26 88/88/26
f 39/84/3 85/189/3 87/50/3
f 21/51/3 91/196/3 89/120/3
f 52/114/5 90/45/5 92/46/5
f 50/115/4 92/46/4 89/48/4
f 49/168/27 91/43/27 90/45/27
f 11/169/28 93/118/28 96/119/28
f 12/15/4 94/113/4 95/117/4
f 10/14/5 96/119/5 94/113/5
f 49/121/3 93/186/3 95/18/3
f 11/19/3 99/197/3 97/123/3
f 55/170/29 99/21/29 98/22/29
f 56/132/4 100/13/4 97/17/4
f 54/127/5 98/22/5 100/13/5
f 26/57/5 104/128/5 102/129/5
f 28/62/4 102/129/4 103/131/4
f 27/171/30 101/126/30 104/128/30
f 55/124/3 101/190/3 103/53/3
f 27/54/3 107/198/3 105/140/3
f 60/134/5 106/58/5 108/59/5
f 58/135/4 108/59/4 105/61/4
f 57/172/31 107/56/31 106/58/31
f 17/173/32 109/138/32 112/139/32
f 18/39/4 110/133/4 111/137/4
f 20/34/5 112/139/5 110/133/5
f 57/141/3 109/188/3 111/40/3
f 17/41/3 115/199/3 113/143/3
f 62/147/5 114/35/5 116/36/5
f 64/148/4 116/36/4 113/38/4
f 63/174/33 115/33/33 114/35/33
f 29/175/34 117/151/34 120/152/34
f 30/65/4 118/146/4 119/150/4
f 32/64/5 120/152/5 118/146/5
f 63/144/3 117/191/3 119/70/3
f 29/71/3 123/200/3 121/160/3
f 65/176/35 123/68/35 122/69/35
f 66/159/4 124/63/4 121/67/4
f 68/154/5 122/69/5 124/63/5
f 1/177/5 128/155/5 126/156/5
f 2/12/4 126/156/4 127/158/4
f 5/179/36 125/153/36 128/155/36
f 65/161/3 125/185/3 127/6/3
f 7/180/3 131/195/3 129/103/3
f 46/107/5 130/3/5 132/9/5
f 48/108/4 132/9/4 129/11/4
f 47/182/37 131/1/37 130/3/37
