# Blender 4.2.3 LTS
# www.blender.org
mtllib Gloria.mtl
o Cube
v -0.029674 1.990523 -0.687548
v -0.037732 1.979077 0.954839
v -0.587814 1.990523 -0.687548
v -0.579755 1.979077 0.954839
v -0.571286 0.082966 0.401443
v 0.000000 2.032669 0.432535
v -0.617487 2.032669 0.432535
v -0.046201 0.082966 0.401443
v -0.617487 2.032669 -0.003328
v 0.000000 0.000000 -0.003328
v -0.617487 0.000000 -0.003328
v 0.000000 2.032669 -0.003328
v -0.029674 1.197796 -0.687548
v -0.579755 1.209242 0.954839
v -0.037732 1.209242 0.954839
v -0.587814 1.197796 -0.687548
v 0.000000 1.155650 0.432535
v -0.617487 1.155650 0.432535
v 0.000000 1.155650 -0.003328
v -0.617487 1.155650 -0.003328
v 0.000000 0.694933 0.432535
v -0.617487 0.694933 0.432535
v 0.000000 0.694933 -0.003328
v -0.617487 0.694933 -0.003328
v 0.000000 0.447487 0.432535
v -0.617487 0.447487 0.432535
v 0.000000 0.447487 -0.003328
v -0.617487 0.447487 -0.003328
v 0.000000 0.223743 0.432535
v -0.617487 0.223743 0.432535
v 0.000000 0.223743 -0.003328
v -0.617487 0.223743 -0.003328
v -0.617487 1.904770 1.000000
v 0.000000 1.904770 -0.740698
v 0.000000 1.904770 1.000000
v -0.617487 1.904770 -0.740698
v 0.000000 1.904770 0.432535
v -0.617487 1.904770 0.432535
v 0.000000 1.904770 -0.003328
v -0.617487 1.904770 -0.003328
v 0.000000 1.306683 -0.740698
v 0.000000 1.306683 1.000000
v -0.617487 1.306683 -0.740698
v 0.000000 1.306683 0.432535
v -0.617487 1.306683 0.432535
v 0.000000 1.306683 -0.003328
v -0.617487 1.306683 -0.003328
v -0.617487 1.306683 1.000000
v 0.000000 2.032669 0.830017
v -0.617487 2.032669 0.830017
v -0.617487 1.155650 0.830017
v 0.000000 1.155650 0.830017
v -0.617487 1.904770 0.830017
v 0.000000 1.904770 0.830017
v 0.000000 1.306683 0.830017
v -0.617487 1.306683 0.830017
v -0.617487 2.032669 -0.556356
v 0.000000 0.000000 -0.353686
v -0.617487 0.000000 -0.353686
v 0.000000 2.032669 -0.556356
v 0.000000 1.155650 -0.556356
v -0.617487 1.155650 -0.556356
v -0.617487 0.694933 -0.353686
v 0.000000 0.694933 -0.353686
v 0.000000 0.447487 -0.353686
v -0.617487 0.447487 -0.353686
v -0.617487 0.223743 -0.353686
v 0.000000 0.223743 -0.353686
v 0.000000 1.904770 -0.556356
v -0.617487 1.904770 -0.556356
v -0.617487 1.306683 -0.556356
v 0.000000 1.306683 -0.556356
v -0.058226 1.904770 -0.556356
v -0.058226 1.904770 -0.003328
v -0.058226 1.904770 0.432535
v -0.058226 1.306683 0.432535
v -0.058226 1.306683 -0.003328
v -0.058226 1.306683 -0.556356
v -0.058226 1.904770 0.830017
v -0.058226 1.306683 0.830017
v -0.525733 1.904770 0.432535
v -0.525733 1.904770 -0.003328
v -0.525733 1.904770 0.830017
v -0.525733 1.306683 0.432535
v -0.525733 1.306683 -0.003328
v -0.525733 1.306683 0.830017
v -0.525733 1.904770 -0.556356
v -0.525733 1.306683 -0.556356
v -0.617487 0.000000 0.214603
v 0.000000 2.032669 0.214603
v -0.617487 2.032669 0.214603
v 0.000000 0.000000 0.214603
v -0.617487 1.155650 0.214603
v 0.000000 1.155650 0.214603
v 0.000000 0.694933 0.214603
v -0.617487 0.694933 0.214603
v -0.617487 0.447487 0.214603
v 0.000000 0.447487 0.214603
v 0.000000 0.223743 0.214603
v -0.617487 0.223743 0.214603
v -0.617487 1.904770 0.214603
v 0.000000 1.904770 0.214603
v 0.000000 1.306683 0.214603
v -0.617487 1.306683 0.214603
v -0.058226 1.904770 0.214603
v -0.058226 1.306683 0.214603
v -0.525733 1.904770 0.214603
v -0.525733 1.306683 0.214603
vn -0.0000 0.9189 0.3945
vn -0.0000 0.5194 0.8546
vn -0.9450 0.3270 -0.0000
vn 0.8916 0.4528 -0.0000
vn -0.0000 0.5268 -0.8500
vn 1.0000 -0.0000 -0.0000
vn -0.0000 -0.9139 0.4058
vn -1.0000 -0.0000 -0.0000
vn -0.0000 1.0000 -0.0000
vn -0.0000 -1.0000 -0.0000
vn 0.9708 -0.0000 0.2400
vn -0.0000 -0.0000 -1.0000
vn -0.0000 -0.0000 1.0000
vn -0.0000 -0.4205 0.9073
vn -0.9754 -0.0000 -0.2206
vn 0.9572 -0.0000 0.2894
vn -0.0000 -0.4387 -0.8987
vn -0.9572 -0.0000 0.2894
vn -0.8916 0.4528 -0.0000
vn 0.9754 -0.0000 -0.2206
vn 0.9450 0.3270 -0.0000
vn -0.0000 0.9521 -0.3059
vn -0.0000 -0.9189 0.3945
vn -0.0000 -0.0507 0.9987
vn -0.0000 -0.9981 -0.0615
vn -0.9708 -0.0000 0.2400
vn 0.9501 -0.3118 -0.0000
vn -0.9648 -0.2629 -0.0000
vn 0.9325 -0.3611 -0.0000
vn -0.9325 -0.3611 -0.0000
vn 0.9648 -0.2629 -0.0000
vn -0.5583 -0.0000 0.8296
vn 0.5583 -0.0000 0.8296
vn -0.8177 -0.5757 -0.0000
vn 0.8177 -0.5757 -0.0000
vn -0.9501 -0.3118 -0.0000
vt 0.875000 0.725587
vt 0.625000 0.750000
vt 0.625000 0.725587
vt 0.609270 1.000000
vt 0.609270 0.750000
vt 0.609270 0.223525
vt 0.625000 0.250000
vt 0.609270 0.250000
vt 0.609270 0.725587
vt 0.609270 0.500000
vt 0.625000 0.637201
vt 0.609270 0.668500
vt 0.609270 0.637201
vt 0.375000 0.637201
vt 0.125000 0.668500
vt 0.125000 0.637201
vt 0.625000 0.024413
vt 0.609270 0.081500
vt 0.609270 0.024413
vt 0.875000 0.637201
vt 0.625000 0.668500
vt 0.875000 0.526475
vt 0.625000 0.605901
vt 0.625000 0.526475
vt 0.375000 0.526475
vt 0.125000 0.605901
vt 0.125000 0.526475
vt 0.609270 0.605901
vt 0.609270 0.526475
vt 0.625000 0.112799
vt 0.609270 0.144099
vt 0.609270 0.112799
vt 0.517135 0.112799
vt 0.460471 0.144099
vt 0.460471 0.112799
vt 0.517135 0.637201
vt 0.460471 0.668500
vt 0.460471 0.637201
vt 0.430037 0.668500
vt 0.430037 0.637201
vt 0.460471 0.526475
vt 0.430037 0.605901
vt 0.430037 0.526475
vt 0.430037 0.144099
vt 0.430037 0.112799
vt 0.402518 0.144099
vt 0.402518 0.112799
vt 0.402518 0.668500
vt 0.402518 0.637201
vt 0.375000 0.668500
vt 0.402518 0.526475
vt 0.375000 0.605901
vt 0.375000 0.144099
vt 0.375000 0.112799
vt 0.535710 0.024413
vt 0.535710 0.081500
vt 0.535710 0.112799
vt 0.535710 0.725587
vt 0.535710 0.500000
vt 0.535710 0.250000
vt 0.535710 0.750000
vt 0.535710 0.223525
vt 0.535710 1.000000
vt 0.517135 1.000000
vt 0.517135 0.750000
vt 0.517135 0.250000
vt 0.517135 0.223525
vt 0.517135 0.725587
vt 0.517135 0.500000
vt 0.535710 0.637201
vt 0.517135 0.668500
vt 0.517135 0.081500
vt 0.517135 0.024413
vt 0.535710 0.526475
vt 0.517135 0.605901
vt 0.517135 0.526475
vt 0.517135 0.144099
vt 0.517135 0.000000
vt 0.535710 0.668500
vt 0.609270 0.000000
vt 0.535710 0.000000
vt 0.625000 0.000000
vt 0.875000 0.668500
vt 0.535710 0.144099
vt 0.375000 0.223525
vt 0.430037 0.223525
vt 0.625000 0.500000
vt 0.875000 0.500000
vt 0.625000 0.144099
vt 0.460471 0.081500
vt 0.460471 0.605901
vt 0.460471 0.223525
vt 0.402518 0.605901
vt 0.402518 0.223525
vt 0.535710 0.605901
vt 0.375000 0.081500
vt 0.430037 0.081500
vt 0.402518 0.081500
vt 0.625000 0.081500
vt 0.875000 0.605901
vt 0.875000 0.750000
vt 0.625000 1.000000
vt 0.625000 0.223525
s 0
usemtl Material
f 50/1/1 2/2/1 49/3/1
f 2/2/2 33/4/2 35/5/2
f 70/6/3 3/7/3 36/8/3
f 54/9/4 2/2/4 35/5/4
f 3/7/5 34/10/5 36/8/5
f 90/11/6 37/12/6 102/13/6
f 92/14/7 5/15/7 89/16/7
f 50/17/8 38/18/8 53/19/8
f 91/20/9 6/21/9 90/11/9
f 57/22/9 12/23/9 60/24/9
f 58/25/10 11/26/10 59/27/10
f 60/24/6 39/28/6 69/29/6
f 91/30/8 40/31/8 101/32/8
f 93/33/8 24/34/8 96/35/8
f 94/36/6 21/37/6 95/38/6
f 95/38/6 25/39/6 98/40/6
f 64/41/6 27/42/6 65/43/6
f 96/35/8 28/44/8 97/45/8
f 97/45/8 32/46/8 100/47/8
f 98/40/6 29/48/6 99/49/6
f 99/49/11 8/50/11 92/14/11
f 68/51/6 10/52/6 58/25/6
f 100/47/8 11/53/8 89/54/8
f 56/55/9 84/56/9 45/56/9
f 39/28/10 73/29/10 69/29/10
f 45/56/9 108/57/9 104/57/9
f 55/58/12 79/9/12 54/9/12
f 36/8/12 41/59/12 43/60/12
f 54/9/6 42/61/6 55/58/6
f 70/6/8 43/60/8 71/62/8
f 35/5/13 48/63/13 42/61/13
f 42/61/14 14/64/14 15/65/14
f 71/62/15 16/66/15 62/67/15
f 55/58/16 15/65/16 52/68/16
f 43/60/17 13/69/17 16/66/17
f 103/70/6 17/71/6 94/36/6
f 56/55/8 18/72/8 51/73/8
f 72/74/6 19/75/6 61/76/6
f 104/57/8 20/77/8 93/33/8
f 14/78/18 56/55/18 51/73/18
f 44/79/6 52/68/6 17/71/6
f 37/12/10 105/13/10 102/13/10
f 33/80/8 56/55/8 48/81/8
f 4/82/19 53/19/19 33/80/19
f 6/21/6 54/9/6 37/12/6
f 7/83/9 49/3/9 6/21/9
f 13/69/20 72/74/20 61/76/20
f 47/84/8 62/67/8 20/77/8
f 47/84/9 88/62/9 71/62/9
f 34/10/6 72/74/6 41/59/6
f 32/46/8 59/85/8 11/53/8
f 24/34/8 66/86/8 28/44/8
f 1/87/21 69/29/21 34/10/21
f 3/88/22 60/24/22 1/87/22
f 9/89/8 70/6/8 40/31/8
f 18/72/10 52/68/10 51/73/10
f 15/65/23 51/73/23 52/68/23
f 21/37/24 22/90/24 5/15/24
f 16/66/25 13/69/25 19/75/25
f 24/34/12 19/75/12 23/91/12
f 63/92/9 23/91/9 64/41/9
f 66/86/12 64/41/12 65/43/12
f 27/42/10 66/86/10 65/43/10
f 59/27/12 68/51/12 58/25/12
f 32/46/12 27/42/12 31/93/12
f 67/94/9 31/93/9 68/51/9
f 73/29/6 77/95/6 78/74/6
f 105/13/6 76/79/6 106/70/6
f 75/12/6 80/58/6 76/79/6
f 69/29/13 78/74/13 72/74/13
f 44/79/9 80/58/9 55/58/9
f 72/74/9 77/95/9 46/95/9
f 46/95/9 106/70/9 103/70/9
f 54/9/10 75/12/10 37/12/10
f 107/32/8 85/84/8 108/57/8
f 83/19/8 84/56/8 86/55/8
f 82/31/8 88/62/8 85/84/8
f 70/6/10 82/31/10 40/31/10
f 53/19/12 86/55/12 56/55/12
f 38/18/10 83/19/10 53/19/10
f 40/31/10 107/32/10 101/32/10
f 71/62/13 87/6/13 70/6/13
f 101/32/10 81/18/10 38/18/10
f 81/18/8 108/57/8 84/56/8
f 103/70/9 76/79/9 44/79/9
f 74/28/6 106/70/6 77/95/6
f 102/13/10 74/28/10 39/28/10
f 45/56/8 93/33/8 18/72/8
f 46/95/6 94/36/6 19/75/6
f 104/57/9 85/84/9 47/84/9
f 5/96/26 100/47/26 89/54/26
f 31/93/6 92/14/6 10/52/6
f 27/42/6 99/49/6 31/93/6
f 26/97/8 100/47/8 30/98/8
f 22/90/8 97/45/8 26/97/8
f 23/91/6 98/40/6 27/42/6
f 19/75/6 95/38/6 23/91/6
f 18/72/8 96/35/8 22/90/8
f 7/99/8 101/32/8 38/18/8
f 9/100/9 90/11/9 12/23/9
f 10/52/10 89/16/10 11/26/10
f 12/23/6 102/13/6 39/28/6
f 50/1/1 4/101/1 2/2/1
f 2/2/2 4/102/2 33/4/2
f 70/6/15 57/103/15 3/7/15
f 54/9/16 49/3/16 2/2/16
f 3/7/5 1/87/5 34/10/5
f 90/11/6 6/21/6 37/12/6
f 92/14/7 8/50/7 5/15/7
f 50/17/8 7/99/8 38/18/8
f 91/20/9 7/83/9 6/21/9
f 57/22/9 9/100/9 12/23/9
f 58/25/10 10/52/10 11/26/10
f 60/24/6 12/23/6 39/28/6
f 91/30/8 9/89/8 40/31/8
f 93/33/8 20/77/8 24/34/8
f 94/36/6 17/71/6 21/37/6
f 95/38/6 21/37/6 25/39/6
f 64/41/6 23/91/6 27/42/6
f 96/35/8 24/34/8 28/44/8
f 97/45/8 28/44/8 32/46/8
f 98/40/6 25/39/6 29/48/6
f 99/49/27 29/48/27 8/50/27
f 68/51/6 31/93/6 10/52/6
f 100/47/8 32/46/8 11/53/8
f 56/55/9 86/55/9 84/56/9
f 39/28/10 74/28/10 73/29/10
f 45/56/9 84/56/9 108/57/9
f 55/58/12 80/58/12 79/9/12
f 36/8/12 34/10/12 41/59/12
f 54/9/6 35/5/6 42/61/6
f 70/6/8 36/8/8 43/60/8
f 35/5/13 33/4/13 48/63/13
f 42/61/14 48/63/14 14/64/14
f 71/62/28 43/60/28 16/66/28
f 55/58/29 42/61/29 15/65/29
f 43/60/17 41/59/17 13/69/17
f 103/70/6 44/79/6 17/71/6
f 56/55/8 45/56/8 18/72/8
f 72/74/6 46/95/6 19/75/6
f 104/57/8 47/84/8 20/77/8
f 14/78/30 48/81/30 56/55/30
f 44/79/6 55/58/6 52/68/6
f 37/12/10 75/12/10 105/13/10
f 33/80/8 53/19/8 56/55/8
f 4/82/18 50/17/18 53/19/18
f 6/21/6 49/3/6 54/9/6
f 7/83/9 50/1/9 49/3/9
f 13/69/31 41/59/31 72/74/31
f 47/84/8 71/62/8 62/67/8
f 47/84/9 85/84/9 88/62/9
f 34/10/6 69/29/6 72/74/6
f 32/46/8 67/94/8 59/85/8
f 24/34/8 63/92/8 66/86/8
f 1/87/20 60/24/20 69/29/20
f 3/88/22 57/22/22 60/24/22
f 9/89/8 57/103/8 70/6/8
f 18/72/10 17/71/10 52/68/10
f 15/65/23 14/78/23 51/73/23
f 5/15/24 8/50/24 21/37/24
f 8/50/32 29/48/32 25/39/32
f 8/50/32 25/39/32 21/37/32
f 26/97/33 30/98/33 5/15/33
f 17/71/13 18/72/13 22/90/13
f 22/90/33 26/97/33 5/15/33
f 21/37/13 17/71/13 22/90/13
f 13/69/34 61/76/34 19/75/34
f 19/75/25 20/77/25 16/66/25
f 20/77/35 62/67/35 16/66/35
f 24/34/12 20/77/12 19/75/12
f 63/92/9 24/34/9 23/91/9
f 66/86/12 63/92/12 64/41/12
f 27/42/10 28/44/10 66/86/10
f 59/27/12 67/94/12 68/51/12
f 32/46/12 28/44/12 27/42/12
f 67/94/9 32/46/9 31/93/9
f 73/29/6 74/28/6 77/95/6
f 105/13/6 75/12/6 76/79/6
f 75/12/6 79/9/6 80/58/6
f 69/29/13 73/29/13 78/74/13
f 44/79/9 76/79/9 80/58/9
f 72/74/9 78/74/9 77/95/9
f 46/95/9 77/95/9 106/70/9
f 54/9/10 79/9/10 75/12/10
f 107/32/8 82/31/8 85/84/8
f 83/19/8 81/18/8 84/56/8
f 82/31/8 87/6/8 88/62/8
f 70/6/10 87/6/10 82/31/10
f 53/19/12 83/19/12 86/55/12
f 38/18/10 81/18/10 83/19/10
f 40/31/10 82/31/10 107/32/10
f 71/62/13 88/62/13 87/6/13
f 101/32/10 107/32/10 81/18/10
f 81/18/8 107/32/8 108/57/8
f 103/70/9 106/70/9 76/79/9
f 74/28/6 105/13/6 106/70/6
f 102/13/10 105/13/10 74/28/10
f 45/56/8 104/57/8 93/33/8
f 46/95/6 103/70/6 94/36/6
f 104/57/9 108/57/9 85/84/9
f 5/96/36 30/98/36 100/47/36
f 31/93/6 99/49/6 92/14/6
f 27/42/6 98/40/6 99/49/6
f 26/97/8 97/45/8 100/47/8
f 22/90/8 96/35/8 97/45/8
f 23/91/6 95/38/6 98/40/6
f 19/75/6 94/36/6 95/38/6
f 18/72/8 93/33/8 96/35/8
f 7/99/8 91/30/8 101/32/8
f 9/100/9 91/20/9 90/11/9
f 10/52/10 92/14/10 89/16/10
f 12/23/6 90/11/6 102/13/6
