# Blender 4.2.3 LTS
# www.blender.org
mtllib Puelta.mtl
o Cube
v 0.000000 4.096799 -2.018465
v 0.000000 0.000000 -2.018465
v 0.000000 4.096799 1.000000
v 0.000000 0.000000 1.000000
v -0.437382 4.096799 -2.018465
v -0.437382 0.000000 -2.018465
v -0.437382 4.096799 1.000000
v -0.437382 0.000000 1.000000
v -0.437382 0.000000 0.698153
v 0.000000 4.096799 0.698153
v -0.437382 4.096799 0.698153
v 0.000000 0.000000 0.698153
v -0.437382 4.096799 -1.746803
v 0.000000 0.000000 -1.746803
v -0.437382 0.000000 -1.746803
v 0.000000 4.096799 -1.746803
v 0.000000 3.891960 -2.018465
v -0.437382 3.891960 1.000000
v 0.000000 3.891960 1.000000
v -0.437382 3.891960 -2.018465
v 0.000000 3.891960 0.698153
v -0.437382 3.891960 0.698153
v 0.000000 3.891960 -1.746803
v -0.437382 3.891960 -1.746803
v -0.091118 3.891960 0.698153
v -0.091118 0.000000 0.698153
v -0.091118 0.000000 -1.746803
v -0.091118 3.891960 -1.746803
v -0.333434 0.000000 -1.746803
v -0.333434 0.000000 0.698153
v -0.333434 3.891960 0.698153
v -0.333434 3.891960 -1.746803
v 0.000000 1.857897 -2.018465
v 0.000000 1.857897 1.000000
v -0.437382 1.857897 -2.018465
v 0.000000 1.857897 0.698153
v -0.437382 1.857897 0.698153
v 0.000000 1.857897 -1.746803
v -0.437382 1.857897 -1.746803
v -0.437382 1.857897 1.000000
v -0.091118 1.857897 0.698153
v -0.091118 1.857897 -1.746803
v -0.333434 1.857897 0.698153
v -0.333434 1.857897 -1.746803
v -0.437382 2.561964 1.000000
v 0.000000 2.561964 -2.018465
v 0.000000 2.561964 1.000000
v -0.437382 2.561964 -2.018465
v 0.000000 2.561964 0.698153
v -0.437382 2.561964 0.698153
v 0.000000 2.561964 -1.746803
v -0.437382 2.561964 -1.746803
v -0.091118 2.561964 0.698153
v -0.091118 2.561964 -1.746803
v -0.333434 2.561964 0.698153
v -0.333434 2.561964 -1.746803
v -0.437382 0.000000 -1.523069
v 0.000000 4.096799 -1.523069
v -0.437382 4.096799 -1.523069
v 0.000000 0.000000 -1.523069
v -0.437382 3.891960 -1.523069
v 0.000000 3.891960 -1.523069
v -0.091118 0.000000 -1.523069
v -0.091118 3.891960 -1.523069
v -0.333434 0.000000 -1.523069
v -0.333434 3.891960 -1.523069
v -0.333434 1.857897 -1.523069
v -0.091118 1.857897 -1.523069
v -0.333434 2.561964 -1.523069
v -0.091118 2.561964 -1.523069
v -0.437382 0.000000 -1.316736
v 0.000000 4.096799 -1.316736
v 0.000000 3.891960 -1.316736
v -0.091118 3.891960 -1.316736
v -0.333434 0.000000 -1.316736
v -0.091118 1.857897 -1.316736
v -0.091118 2.561964 -1.316736
v -0.437382 4.096799 -1.316736
v 0.000000 0.000000 -1.316736
v -0.437382 3.891960 -1.316736
v -0.091118 0.000000 -1.316736
v -0.333434 3.891960 -1.316736
v -0.333434 1.857897 -1.316736
v -0.333434 2.561964 -1.316736
v 0.000000 2.561964 -1.523069
v 0.000000 1.857897 -1.523069
v 0.000000 1.857897 -1.316736
v 0.000000 2.561964 -1.316736
v -0.437382 1.857897 -1.316736
v -0.437382 1.857897 -1.523069
v -0.437382 2.561964 -1.316736
v -0.437382 2.561964 -1.523069
vn -0.0000 1.0000 -0.0000
vn -0.0000 -0.0000 1.0000
vn -1.0000 -0.0000 -0.0000
vn -0.0000 -1.0000 -0.0000
vn 1.0000 -0.0000 -0.0000
vn -0.0000 -0.0000 -1.0000
vt 0.998096 0.793818
vt 0.836121 0.810016
vt 0.836121 0.793818
vt 0.828023 0.971991
vt 0.828023 0.810016
vt 0.836121 0.471488
vt 0.828023 0.486066
vt 0.828023 0.471488
vt 0.674147 0.793818
vt 0.512172 0.810016
vt 0.512172 0.793818
vt 0.828023 0.793818
vt 0.836121 0.486066
vt 0.828023 0.648041
vt 0.836121 0.685696
vt 0.828023 0.685696
vt 0.674147 0.685696
vt 0.512172 0.685696
vt 0.836121 0.324091
vt 0.828023 0.340288
vt 0.828023 0.324091
vt 0.998096 0.685696
vt 0.998096 0.648041
vt 0.836121 0.662618
vt 0.836121 0.648041
vt 0.674147 0.648041
vt 0.512172 0.662618
vt 0.512172 0.648041
vt 0.828023 0.662618
vt 0.836121 0.459482
vt 0.828023 0.459482
vt 0.775439 0.340288
vt 0.775439 0.662618
vt 0.775439 0.648041
vt 0.775439 0.324091
vt 0.775439 0.486066
vt 0.775439 0.810016
vt 0.775439 0.793818
vt 0.775439 0.471488
vt 0.775439 0.971991
vt 0.376265 0.558120
vt 0.295104 0.725000
vt 0.295104 0.558120
vt 0.747602 0.793818
vt 0.674147 0.662618
vt 0.674147 0.674624
vt 0.376265 0.734987
vt 0.295104 0.753517
vt 0.295104 0.734987
vt 0.674147 0.471488
vt 0.747602 0.471488
vt 0.747602 0.471488
vt 0.828023 0.459482
vt 0.775439 0.471488
vt 0.252140 0.734987
vt 0.138765 0.753517
vt 0.138765 0.734987
vt 0.747602 0.662618
vt 0.252140 0.558120
vt 0.138765 0.725000
vt 0.138765 0.558120
vt 0.747602 0.810016
vt 0.674147 0.971991
vt 0.674147 0.810016
vt 0.674147 0.486066
vt 0.747602 0.486066
vt 0.747602 0.324091
vt 0.674147 0.340288
vt 0.674147 0.324091
vt 0.747602 0.648041
vt 0.747602 0.340288
vt 0.252140 0.753517
vt 0.252140 0.725000
vt 0.747602 0.971991
vt 0.295104 0.522500
vt 0.252140 0.541031
vt 0.252140 0.522500
vt 0.747602 0.459482
vt 0.775439 0.459482
vt 0.138765 0.541031
vt 0.138765 0.522500
vt 0.252140 0.717897
vt 0.138765 0.717897
vt 0.512172 0.674624
vt 0.828023 0.448410
vt 0.828023 0.448410
vt 0.376265 0.717897
vt 0.295104 0.717897
vt 0.376265 0.522500
vt 0.295104 0.541031
vt 0.828023 0.674624
vt 0.836121 0.448410
vt 0.998096 0.662618
vt 0.836121 0.674624
vt 0.836121 0.340288
vt 0.376265 0.551017
vt 0.295104 0.551017
vt 0.252140 0.551017
vt 0.138765 0.551017
vt 0.747602 0.685696
vt 0.775439 0.685696
vt 0.512172 0.674624
vt 0.376265 0.541031
vt 0.828023 0.674624
vt 0.998096 0.674624
vt 0.775439 0.674624
vt 0.747602 0.674624
vt 0.775439 0.448410
vt 0.747602 0.448410
vt 0.998096 0.810016
vt 0.836121 0.971991
vt 0.376265 0.725000
vt 0.376265 0.753517
s 0
usemtl Material
f 11/1/1 3/2/1 10/3/1
f 3/2/2 18/4/2 19/5/2
f 13/6/3 20/7/3 24/8/3
f 12/9/4 8/10/4 9/11/4
f 10/3/5 19/5/5 21/12/5
f 5/13/6 17/14/6 20/7/6
f 72/15/5 21/12/5 73/16/5
f 79/17/4 9/11/4 71/18/4
f 7/19/3 22/20/3 18/21/3
f 78/22/1 10/3/1 72/15/1
f 5/23/1 16/24/1 1/25/1
f 2/26/4 15/27/4 6/28/4
f 1/25/5 23/29/5 17/14/5
f 59/30/3 24/8/3 61/31/3
f 22/20/6 55/32/6 50/32/6
f 17/14/5 51/33/5 46/34/5
f 18/21/3 50/32/3 45/35/3
f 21/12/4 74/16/4 73/16/4
f 20/7/6 46/34/6 48/36/6
f 21/12/5 47/37/5 49/38/5
f 24/8/3 48/36/3 52/39/3
f 19/5/2 45/40/2 47/37/2
f 74/41/5 53/42/5 77/43/5
f 23/29/2 54/33/2 51/33/2
f 12/9/6 41/44/6 36/44/6
f 14/45/1 63/46/1 60/46/1
f 66/47/3 56/48/3 69/49/3
f 15/50/2 44/51/2 39/52/2
f 24/8/4 66/53/4 61/31/4
f 9/11/1 75/18/1 71/18/1
f 39/52/2 56/54/2 52/39/2
f 67/55/3 29/56/3 65/57/3
f 36/44/6 53/38/6 49/38/6
f 38/58/2 27/45/2 14/45/2
f 76/59/5 26/60/5 81/61/5
f 34/62/2 8/63/2 4/64/2
f 39/52/3 6/65/3 15/50/3
f 36/44/5 4/64/5 12/9/5
f 35/66/6 2/26/6 6/65/6
f 40/67/3 9/68/3 8/69/3
f 33/70/5 14/45/5 2/26/5
f 37/71/6 30/68/6 9/68/6
f 49/38/6 25/12/6 21/12/6
f 52/39/2 32/8/2 24/8/2
f 69/49/3 44/72/3 67/55/3
f 51/33/2 42/58/2 38/58/2
f 77/43/5 41/73/5 76/59/5
f 47/37/2 40/74/2 34/62/2
f 52/39/3 35/66/3 39/52/3
f 49/38/5 34/62/5 36/44/5
f 48/36/6 33/70/6 35/66/6
f 45/35/3 37/71/3 40/67/3
f 46/34/5 38/58/5 33/70/5
f 50/32/6 43/71/6 37/71/6
f 54/75/5 68/76/5 42/77/5
f 67/78/6 92/79/6 69/79/6
f 42/77/5 63/80/5 27/81/5
f 83/82/3 65/57/3 75/83/3
f 57/84/1 29/27/1 15/27/1
f 61/31/4 82/85/4 80/86/4
f 82/87/3 69/49/3 84/88/3
f 60/46/1 81/17/1 79/17/1
f 28/89/5 70/90/5 54/75/5
f 62/91/4 28/29/4 23/29/4
f 78/92/3 61/31/3 80/86/3
f 13/93/1 58/94/1 16/24/1
f 14/45/4 57/84/4 15/27/4
f 16/24/5 62/91/5 23/29/5
f 11/95/3 80/86/3 22/20/3
f 79/17/1 26/9/1 12/9/1
f 31/96/3 84/88/3 55/97/3
f 80/86/4 31/20/4 22/20/4
f 43/98/3 75/83/3 30/99/3
f 55/97/3 83/82/3 43/98/3
f 76/100/2 88/101/2 77/101/2
f 68/76/5 81/61/5 63/80/5
f 71/18/1 65/102/1 57/84/1
f 64/103/5 77/43/5 70/90/5
f 73/16/4 64/104/4 62/91/4
f 59/105/1 72/15/1 58/94/1
f 60/46/4 71/18/4 57/84/4
f 58/94/5 73/16/5 62/91/5
f 85/106/5 87/100/5 86/107/5
f 68/107/4 87/100/4 76/100/4
f 70/106/6 86/107/6 68/107/6
f 77/101/1 85/106/1 70/106/1
f 91/108/3 90/78/3 89/109/3
f 84/108/2 89/109/2 83/109/2
f 69/79/1 91/108/1 84/108/1
f 83/109/4 90/78/4 67/78/4
f 11/1/1 7/110/1 3/2/1
f 3/2/2 7/111/2 18/4/2
f 13/6/3 5/13/3 20/7/3
f 12/9/4 4/64/4 8/10/4
f 10/3/5 3/2/5 19/5/5
f 5/13/6 1/25/6 17/14/6
f 72/15/5 10/3/5 21/12/5
f 79/17/4 12/9/4 9/11/4
f 7/19/3 11/95/3 22/20/3
f 78/22/1 11/1/1 10/3/1
f 5/23/1 13/93/1 16/24/1
f 2/26/4 14/45/4 15/27/4
f 1/25/5 16/24/5 23/29/5
f 59/30/3 13/6/3 24/8/3
f 22/20/6 31/20/6 55/32/6
f 17/14/5 23/29/5 51/33/5
f 18/21/3 22/20/3 50/32/3
f 21/12/4 25/12/4 74/16/4
f 20/7/6 17/14/6 46/34/6
f 21/12/5 19/5/5 47/37/5
f 24/8/3 20/7/3 48/36/3
f 19/5/2 18/4/2 45/40/2
f 74/41/5 25/112/5 53/42/5
f 23/29/2 28/29/2 54/33/2
f 12/9/6 26/9/6 41/44/6
f 14/45/1 27/45/1 63/46/1
f 66/47/3 32/113/3 56/48/3
f 15/50/2 29/50/2 44/51/2
f 24/8/4 32/8/4 66/53/4
f 9/11/1 30/11/1 75/18/1
f 39/52/2 44/51/2 56/54/2
f 67/55/3 44/72/3 29/56/3
f 36/44/6 41/44/6 53/38/6
f 38/58/2 42/58/2 27/45/2
f 76/59/5 41/73/5 26/60/5
f 34/62/2 40/74/2 8/63/2
f 39/52/3 35/66/3 6/65/3
f 36/44/5 34/62/5 4/64/5
f 35/66/6 33/70/6 2/26/6
f 40/67/3 37/71/3 9/68/3
f 33/70/5 38/58/5 14/45/5
f 37/71/6 43/71/6 30/68/6
f 49/38/6 53/38/6 25/12/6
f 52/39/2 56/54/2 32/8/2
f 69/49/3 56/48/3 44/72/3
f 51/33/2 54/33/2 42/58/2
f 77/43/5 53/42/5 41/73/5
f 47/37/2 45/40/2 40/74/2
f 52/39/3 48/36/3 35/66/3
f 49/38/5 47/37/5 34/62/5
f 48/36/6 46/34/6 33/70/6
f 45/35/3 50/32/3 37/71/3
f 46/34/5 51/33/5 38/58/5
f 50/32/6 55/32/6 43/71/6
f 54/75/5 70/90/5 68/76/5
f 67/78/6 90/78/6 92/79/6
f 42/77/5 68/76/5 63/80/5
f 83/82/3 67/55/3 65/57/3
f 57/84/1 65/102/1 29/27/1
f 61/31/4 66/53/4 82/85/4
f 82/87/3 66/47/3 69/49/3
f 60/46/1 63/46/1 81/17/1
f 28/89/5 64/103/5 70/90/5
f 62/91/4 64/104/4 28/29/4
f 78/92/3 59/30/3 61/31/3
f 13/93/1 59/105/1 58/94/1
f 14/45/4 60/46/4 57/84/4
f 16/24/5 58/94/5 62/91/5
f 11/95/3 78/92/3 80/86/3
f 79/17/1 81/17/1 26/9/1
f 31/96/3 82/87/3 84/88/3
f 80/86/4 82/85/4 31/20/4
f 43/98/3 83/82/3 75/83/3
f 55/97/3 84/88/3 83/82/3
f 76/100/2 87/100/2 88/101/2
f 68/76/5 76/59/5 81/61/5
f 71/18/1 75/18/1 65/102/1
f 64/103/5 74/41/5 77/43/5
f 73/16/4 74/16/4 64/104/4
f 59/105/1 78/22/1 72/15/1
f 60/46/4 79/17/4 71/18/4
f 58/94/5 72/15/5 73/16/5
f 85/106/5 88/101/5 87/100/5
f 68/107/4 86/107/4 87/100/4
f 70/106/6 85/106/6 86/107/6
f 77/101/1 88/101/1 85/106/1
f 91/108/3 92/79/3 90/78/3
f 84/108/2 91/108/2 89/109/2
f 69/79/1 92/79/1 91/108/1
f 83/109/4 89/109/4 90/78/4
