# Blender 4.0.2
# www.blender.org
mtllib Estanteria.mtl
o Cube
v -1.000000 0.000000 1.000000
v -1.000000 4.000000 1.000000
v -1.000000 0.000000 -1.000000
v -1.000000 4.000000 -1.000000
v 0.000000 0.000000 1.000000
v 0.000000 4.000000 1.000000
v 0.000000 0.000000 -1.000000
v 0.000000 4.000000 -1.000000
v -0.900000 0.760692 -1.000000
v -0.900000 0.900000 -1.000000
v -0.900000 1.700000 -1.000000
v -0.900000 1.800000 -1.000000
v -0.900000 2.600000 -1.000000
v -0.900000 2.700000 -1.000000
v -0.900000 3.500000 -1.000000
v -0.900000 3.600000 -1.000000
v -0.900000 4.000000 -1.000000
v -0.100000 4.000000 -1.000000
v -0.900000 0.000000 -1.000000
v -0.100000 0.000000 -1.000000
v -0.100000 3.600000 -1.000000
v -0.100000 2.700000 -1.000000
v -0.100000 2.600000 -1.000000
v -0.100000 3.500000 -1.000000
v -0.100000 0.760692 -1.000000
v -0.100000 0.900000 -1.000000
v -0.100000 1.700000 -1.000000
v -0.100000 1.800000 -1.000000
v -0.900000 3.600000 1.000000
v -0.900000 4.000000 1.000000
v -0.100000 4.000000 1.000000
v -0.100000 3.600000 1.000000
v -0.100000 2.700000 1.000000
v -0.100000 2.600000 1.000000
v -0.100000 3.500000 1.000000
v -0.100000 0.760692 1.000000
v -0.100000 0.900000 1.000000
v -0.100000 1.700000 1.000000
v -0.100000 1.800000 1.000000
v -0.900000 0.000000 1.000000
v -0.900000 0.760692 1.000000
v -0.900000 0.900000 1.000000
v -0.900000 1.700000 1.000000
v -0.900000 1.800000 1.000000
v -0.900000 2.600000 1.000000
v -0.900000 2.700000 1.000000
v -0.900000 3.500000 1.000000
v -0.100000 0.000000 1.000000
v -1.000000 3.600000 0.900000
v -1.000000 4.000000 0.900000
v -1.000000 0.760692 0.897551
v -1.000000 0.900000 0.897551
v -1.000000 1.700000 0.897551
v -1.000000 1.800000 0.897551
v -1.000000 2.600000 0.897551
v -1.000000 2.700000 0.897551
v -1.000000 3.500000 0.897551
v -1.000000 4.000000 -0.900000
v -1.000000 0.000000 0.897551
v -1.000000 3.500000 -0.902449
v -1.000000 1.800000 -0.902449
v -1.000000 2.600000 -0.902449
v -1.000000 2.700000 -0.902449
v -1.000000 0.000000 -0.902449
v -1.000000 0.760692 -0.902449
v -1.000000 0.900000 -0.902449
v -1.000000 1.700000 -0.902449
v -1.000000 3.600000 -0.900000
v 0.000000 4.000000 0.900000
v 0.000000 0.760692 -0.902449
v 0.000000 0.900000 -0.902449
v 0.000000 2.700000 -0.902449
v 0.000000 3.500000 -0.902449
v 0.000000 1.800000 -0.902449
v 0.000000 1.700000 -0.902449
v 0.000000 2.600000 -0.902449
v 0.000000 3.600000 -0.900000
v 0.000000 4.000000 -0.900000
v 0.000000 0.000000 0.897551
v 0.000000 0.760692 0.897551
v 0.000000 3.600000 0.900000
v 0.000000 0.900000 0.897551
v 0.000000 1.700000 0.897551
v 0.000000 1.800000 0.897551
v 0.000000 2.600000 0.897551
v 0.000000 2.700000 0.897551
v 0.000000 3.500000 0.897551
v 0.000000 0.000000 -0.902449
v -0.100000 0.000000 0.897551
v -0.100000 0.000000 -0.902449
v -0.900000 0.000000 0.897551
v -0.900000 0.000000 -0.902449
v -0.900000 4.000000 0.900000
v -0.900000 4.000000 -0.900000
v -0.100000 4.000000 0.900000
v -0.100000 4.000000 -0.900000
v -0.900000 0.760692 0.897551
v -0.900000 0.760692 -0.902449
v -0.100000 0.760692 0.897551
v -0.100000 0.760692 -0.902449
v -0.900000 0.900000 0.897551
v -0.900000 0.900000 -0.902449
v -0.900000 1.700000 -0.902449
v -0.900000 1.700000 0.897551
v -0.100000 1.700000 0.897551
v -0.100000 1.700000 -0.902449
v -0.100000 0.900000 0.897551
v -0.100000 0.900000 -0.902449
v -0.900000 1.800000 0.897551
v -0.900000 1.800000 -0.902449
v -0.900000 2.600000 -0.902449
v -0.900000 2.600000 0.897551
v -0.100000 2.600000 0.897551
v -0.100000 2.600000 -0.902449
v -0.100000 1.800000 0.897551
v -0.100000 1.800000 -0.902449
v -0.900000 2.700000 0.897551
v -0.900000 2.700000 -0.902449
v -0.900000 3.500000 -0.902449
v -0.900000 3.500000 0.897551
v -0.100000 3.500000 0.897551
v -0.100000 3.500000 -0.902449
v -0.100000 2.700000 0.897551
v -0.100000 2.700000 -0.902449
v -0.900000 3.600000 0.900000
v -0.900000 3.600000 -0.900000
v -0.100000 3.600000 0.900000
v -0.100000 3.600000 -0.900000
vn -0.0000 -0.0000 -1.0000
vn -0.0000 -1.0000 -0.0000
vn 1.0000 -0.0000 -0.0000
vn -0.0000 -0.0000 1.0000
vn -1.0000 -0.0000 -0.0000
vn -0.0000 1.0000 -0.0000
vt 0.923815 0.924593
vt 0.953137 0.895271
vt 0.953137 0.924593
vt 0.963499 0.599016
vt 0.890462 0.617733
vt 0.890462 0.599016
vt 0.495492 0.948773
vt 0.509794 0.919451
vt 0.509794 0.948773
vt 0.210552 0.948773
vt 0.239874 0.919451
vt 0.239874 0.948773
vt 0.728106 0.647645
vt 0.711581 0.713744
vt 0.711581 0.647645
vt 0.965332 0.295814
vt 0.890462 0.258379
vt 0.965332 0.258379
vt 0.800510 0.089739
vt 0.763076 0.258196
vt 0.763076 0.089739
vt 0.383572 0.647645
vt 0.350522 0.812893
vt 0.350522 0.647645
vt 0.826769 0.565217
vt 0.864204 0.415477
vt 0.864204 0.565217
vt 0.644113 0.919451
vt 0.673435 0.947332
vt 0.644113 0.947332
vt 0.826769 0.728086
vt 0.864204 0.578346
vt 0.864204 0.728086
vt 0.800510 0.439782
vt 0.763075 0.271325
vt 0.800510 0.271325
vt 0.665378 0.722007
vt 0.642358 0.647645
vt 0.665378 0.647645
vt 0.864204 0.832391
vt 0.939074 0.851109
vt 0.864204 0.851109
vt 0.897484 0.939433
vt 0.868163 0.910111
vt 0.897484 0.910111
vt 0.890462 0.466041
vt 0.927897 0.503476
vt 0.890462 0.503476
vt 0.286264 0.214853
vt 0.051689 0.082904
vt 0.286264 0.082904
vt 0.927897 0.516605
vt 0.890462 0.554040
vt 0.890462 0.516605
vt 0.683719 0.919451
vt 0.713041 0.947332
vt 0.683719 0.947332
vt 0.837945 0.832391
vt 0.763075 0.851567
vt 0.763075 0.832391
vt 0.890462 0.396943
vt 0.927897 0.359508
vt 0.927897 0.396943
vt 0.965332 0.585887
vt 0.890462 0.567169
vt 0.965332 0.567169
vt 0.593835 0.948773
vt 0.608137 0.919451
vt 0.608137 0.948773
vt 0.630767 0.722007
vt 0.614242 0.647747
vt 0.630767 0.647645
vt 0.665378 0.802265
vt 0.642358 0.727904
vt 0.665378 0.727904
vt 0.534380 0.948773
vt 0.520078 0.919451
vt 0.534380 0.919451
vt 0.049228 0.386110
vt 0.283803 0.254162
vt 0.283803 0.386110
vt 0.963499 0.630862
vt 0.890462 0.649580
vt 0.890462 0.630862
vt 0.992742 0.949537
vt 0.963420 0.956868
vt 0.963420 0.949537
vt 0.978440 0.924593
vt 0.963420 0.895271
vt 0.978440 0.895271
vt 0.459905 0.948773
vt 0.444885 0.919451
vt 0.459905 0.919451
vt 0.616834 0.082904
vt 0.382259 0.214853
vt 0.382259 0.082904
vt 0.383994 0.948773
vt 0.368974 0.919451
vt 0.383994 0.919451
vt 0.676970 0.713744
vt 0.699990 0.647645
vt 0.699990 0.713744
vt 0.923815 0.949537
vt 0.953137 0.956868
vt 0.923815 0.956868
vt 0.394277 0.948773
vt 0.409297 0.919451
vt 0.409297 0.948773
vt 0.558965 0.948773
vt 0.544663 0.919451
vt 0.558965 0.919451
vt 0.569249 0.948773
vt 0.583551 0.919451
vt 0.583551 0.948773
vt 0.081452 0.919451
vt 0.052130 0.948773
vt 0.052130 0.919451
vt 0.826769 0.816085
vt 0.901639 0.741215
vt 0.901639 0.816085
vt 0.802535 0.947332
vt 0.817555 0.919451
vt 0.817555 0.947332
vt 0.800510 0.452912
vt 0.763075 0.621369
vt 0.763075 0.452912
vt 0.923815 0.944396
vt 0.953137 0.929735
vt 0.953137 0.944396
vt 0.382259 0.256802
vt 0.616834 0.388750
vt 0.382259 0.388750
vt 0.927897 0.452912
vt 0.890462 0.415477
vt 0.927897 0.415477
vt 0.091735 0.948773
vt 0.121057 0.919451
vt 0.121057 0.948773
vt 0.283803 0.420857
vt 0.049228 0.552805
vt 0.049228 0.420857
vt 0.864204 0.239478
vt 0.826768 0.089739
vt 0.864204 0.089739
vt 0.630767 0.728005
vt 0.614242 0.802265
vt 0.614242 0.727904
vt 0.897484 0.944575
vt 0.868163 0.952085
vt 0.868163 0.944575
vt 0.826769 0.402348
vt 0.864204 0.252608
vt 0.864204 0.402348
vt 0.419581 0.948773
vt 0.434601 0.919451
vt 0.434601 0.948773
vt 0.763076 0.802955
vt 0.800510 0.634498
vt 0.800510 0.802955
vt 0.728106 0.719540
vt 0.711581 0.785639
vt 0.711581 0.719540
vt 0.428212 0.647645
vt 0.395163 0.812893
vt 0.395163 0.647645
vt 0.699990 0.785639
vt 0.676970 0.719540
vt 0.699990 0.719540
vt 0.378163 0.556901
vt 0.612738 0.424953
vt 0.612738 0.556901
vt 0.041846 0.948773
vt 0.012524 0.919451
vt 0.041846 0.919451
vt 0.633830 0.948773
vt 0.619528 0.919451
vt 0.633830 0.919451
vt 0.842859 0.947332
vt 0.827839 0.919451
vt 0.842859 0.919451
vt 0.472853 0.812893
vt 0.439804 0.647645
vt 0.472853 0.647645
vt 0.043497 0.748959
vt 0.278071 0.880907
vt 0.043497 0.880907
vt 0.752646 0.919451
vt 0.723324 0.947332
vt 0.723324 0.919451
vt 0.277246 0.583269
vt 0.277246 0.715217
vt 0.042671 0.715217
vt 0.529085 0.812893
vt 0.545610 0.647645
vt 0.546014 0.812893
vt 0.890462 0.346379
vt 0.965332 0.308944
vt 0.965332 0.346379
vt 0.890462 0.089739
vt 0.926980 0.160930
vt 0.890462 0.160930
vt 0.470188 0.948773
vt 0.485208 0.919451
vt 0.485208 0.948773
vt 0.926980 0.245250
vt 0.890462 0.174059
vt 0.926980 0.174059
vt 0.992742 0.944396
vt 0.963420 0.929735
vt 0.992742 0.929735
vt 0.602246 0.812893
vt 0.586126 0.647645
vt 0.602651 0.647645
vt 0.131341 0.948773
vt 0.160662 0.919451
vt 0.160662 0.948773
vt 0.558010 0.647645
vt 0.574535 0.812893
vt 0.557606 0.812893
vt 0.319085 0.919451
vt 0.289763 0.948773
vt 0.289763 0.919451
vt 0.334402 0.812893
vt 0.279479 0.948773
vt 0.250157 0.919451
vt 0.279479 0.919451
vt 0.329368 0.948773
vt 0.358690 0.919451
vt 0.358690 0.948773
vt 0.200268 0.919451
vt 0.170946 0.948773
vt 0.170946 0.919451
vt 0.792252 0.947332
vt 0.762930 0.919451
vt 0.792252 0.919451
vt 0.517494 0.812893
vt 0.484444 0.647645
vt 0.517494 0.647645
vt 0.923815 0.895271
vt 0.963499 0.617733
vt 0.495492 0.919451
vt 0.210552 0.919451
vt 0.728106 0.713744
vt 0.890462 0.295814
vt 0.800510 0.258196
vt 0.383572 0.812893
vt 0.826769 0.415477
vt 0.673435 0.919451
vt 0.826769 0.578346
vt 0.763075 0.439782
vt 0.642358 0.722007
vt 0.939074 0.832391
vt 0.868163 0.939433
vt 0.927897 0.466041
vt 0.286264 0.222004
vt 0.051689 0.222004
vt 0.051689 0.214853
vt 0.022367 0.214853
vt 0.022367 0.082904
vt 0.315585 0.082904
vt 0.315585 0.214853
vt 0.051689 0.075395
vt 0.286264 0.075395
vt 0.927897 0.554040
vt 0.713041 0.919451
vt 0.837945 0.851567
vt 0.890462 0.359508
vt 0.890462 0.585887
vt 0.593835 0.919451
vt 0.614242 0.722108
vt 0.642358 0.802265
vt 0.520078 0.948773
vt 0.019907 0.386110
vt 0.019907 0.254162
vt 0.049228 0.254162
vt 0.049228 0.246832
vt 0.283803 0.246832
vt 0.283803 0.393441
vt 0.049228 0.393441
vt 0.313125 0.254162
vt 0.313125 0.386110
vt 0.963499 0.649580
vt 0.992742 0.956868
vt 0.963420 0.924593
vt 0.444885 0.948773
vt 0.646156 0.082904
vt 0.646156 0.214853
vt 0.616834 0.214853
vt 0.616834 0.222004
vt 0.382259 0.222004
vt 0.382259 0.075395
vt 0.616834 0.075395
vt 0.352938 0.214853
vt 0.352938 0.082904
vt 0.368974 0.948773
vt 0.676970 0.647645
vt 0.953137 0.949537
vt 0.394277 0.919451
vt 0.544663 0.948773
vt 0.569249 0.919451
vt 0.081452 0.948773
vt 0.826769 0.741215
vt 0.802535 0.919451
vt 0.800510 0.621369
vt 0.923815 0.929735
vt 0.382259 0.249292
vt 0.616834 0.249292
vt 0.616834 0.256802
vt 0.646156 0.256802
vt 0.646156 0.388750
vt 0.352938 0.388750
vt 0.352938 0.256802
vt 0.616834 0.395901
vt 0.382259 0.395901
vt 0.890462 0.452912
vt 0.091735 0.919451
vt 0.313125 0.420857
vt 0.313125 0.552805
vt 0.283803 0.552805
vt 0.283803 0.559956
vt 0.049228 0.559956
vt 0.049228 0.413347
vt 0.283803 0.413347
vt 0.019907 0.552805
vt 0.019907 0.420857
vt 0.826769 0.239478
vt 0.630767 0.802366
vt 0.897484 0.952085
vt 0.826769 0.252608
vt 0.419581 0.919451
vt 0.763075 0.634498
vt 0.728106 0.785639
vt 0.428212 0.812893
vt 0.676970 0.785639
vt 0.348842 0.556901
vt 0.348842 0.424953
vt 0.378163 0.424953
vt 0.378163 0.417443
vt 0.612738 0.417443
vt 0.612738 0.564052
vt 0.378163 0.564052
vt 0.642059 0.424953
vt 0.642059 0.556901
vt 0.012524 0.948773
vt 0.619528 0.948773
vt 0.827839 0.947332
vt 0.439804 0.812893
vt 0.043497 0.741449
vt 0.278071 0.741449
vt 0.278071 0.748959
vt 0.307393 0.748959
vt 0.307393 0.880907
vt 0.014175 0.880907
vt 0.014175 0.748959
vt 0.278071 0.888058
vt 0.043497 0.888058
vt 0.752646 0.947332
vt 0.013350 0.715217
vt 0.013350 0.583269
vt 0.042671 0.583269
vt 0.042671 0.575759
vt 0.277246 0.575759
vt 0.306568 0.583269
vt 0.306568 0.715217
vt 0.277246 0.722368
vt 0.042671 0.722368
vt 0.529085 0.647645
vt 0.890462 0.308944
vt 0.926980 0.089739
vt 0.470188 0.919451
vt 0.890462 0.245250
vt 0.963420 0.944396
vt 0.586126 0.812893
vt 0.131341 0.919451
vt 0.574535 0.647645
vt 0.319085 0.948773
vt 0.333998 0.647645
vt 0.250157 0.948773
vt 0.329368 0.919451
vt 0.200268 0.948773
vt 0.762930 0.947332
vt 0.484444 0.812893
s 0
usemtl Estanteria
f 54/1/1 112/2/1 109/3/1
f 3/4/2 92/5/2 64/6/2
f 10/7/3 103/8/3 102/9/3
f 56/10/1 120/11/1 117/12/1
f 23/13/1 14/14/1 22/15/1
f 81/16/1 95/17/1 69/18/1
f 83/19/3 74/20/3 84/21/3
f 17/22/1 3/23/1 4/24/1
f 39/25/4 43/26/4 38/27/4
f 51/28/1 91/29/1 59/30/1
f 12/31/1 27/32/1 11/33/1
f 53/34/5 61/35/5 67/36/5
f 70/37/3 82/38/3 80/39/3
f 2/40/6 93/41/6 50/42/6
f 61/43/4 111/44/4 62/45/4
f 17/46/3 126/47/3 16/48/3
f 124/49/6 117/50/6 123/51/6
f 18/52/5 128/53/5 96/54/5
f 70/55/4 90/56/4 88/57/4
f 48/58/2 79/59/2 5/60/2
f 32/61/5 95/62/5 127/63/5
f 8/64/6 96/65/6 78/66/6
f 14/67/3 119/68/3 118/69/3
f 57/70/5 68/71/5 60/72/5
f 51/73/5 66/74/5 65/75/5
f 28/76/5 114/77/5 23/78/5
f 126/79/6 127/80/6 128/81/6
f 20/82/2 88/83/2 90/84/2
f 17/85/6 58/86/6 94/87/6
f 44/88/3 112/89/3 45/90/3
f 46/91/3 120/92/3 47/93/3
f 104/94/2 106/95/2 105/96/2
f 42/97/3 104/98/3 43/99/3
f 10/100/1 25/101/1 9/102/1
f 31/103/6 69/104/6 95/105/6
f 39/106/5 113/107/5 115/108/5
f 26/109/5 106/110/5 27/111/5
f 12/112/3 111/113/3 110/114/3
f 83/115/1 107/116/1 105/117/1
f 52/118/1 104/119/1 101/120/1
f 48/121/5 99/122/5 89/123/5
f 62/124/5 56/125/5 63/126/5
f 49/127/1 93/128/1 125/129/1
f 99/130/2 98/131/2 100/132/2
f 29/133/3 93/134/3 30/135/3
f 74/136/4 114/137/4 116/138/4
f 120/139/2 122/140/2 121/141/2
f 15/142/1 21/143/1 24/144/1
f 87/145/3 77/146/3 81/147/3
f 1/148/2 91/149/2 40/150/2
f 32/151/4 47/152/4 35/153/4
f 37/154/5 105/155/5 107/156/5
f 72/157/3 85/158/3 76/159/3
f 45/160/4 33/161/4 46/162/4
f 31/163/4 5/164/4 6/165/4
f 36/166/4 42/167/4 41/168/4
f 102/169/6 107/170/6 108/171/6
f 66/172/4 103/173/4 67/174/4
f 22/175/5 122/176/5 24/177/5
f 40/178/3 97/179/3 41/180/3
f 1/181/4 30/182/4 2/183/4
f 109/184/6 116/185/6 110/186/6
f 80/187/1 89/188/1 99/189/1
f 112/190/2 111/191/2 114/192/2
f 1/193/5 50/194/5 59/195/5
f 77/196/4 96/197/4 128/198/4
f 9/199/3 92/200/3 19/201/3
f 33/202/5 121/203/5 123/204/5
f 20/205/5 100/206/5 25/207/5
f 68/208/4 94/209/4 58/210/4
f 88/211/3 8/212/3 78/213/3
f 71/214/4 106/215/4 108/216/4
f 69/217/3 5/218/3 79/219/3
f 87/220/1 123/221/1 121/222/1
f 64/223/5 4/24/5 3/23/5
f 63/224/4 119/225/4 60/226/4
f 72/227/4 122/228/4 124/229/4
f 85/230/1 115/231/1 113/232/1
f 64/233/4 98/234/4 65/235/4
f 7/236/1 18/237/1 8/238/1
f 54/1/1 55/239/1 112/2/1
f 3/4/2 19/240/2 92/5/2
f 10/7/3 11/241/3 103/8/3
f 56/10/1 57/242/1 120/11/1
f 23/13/1 13/243/1 14/14/1
f 81/16/1 127/244/1 95/17/1
f 83/19/3 75/245/3 74/20/3
f 17/22/1 19/246/1 3/23/1
f 39/25/4 44/247/4 43/26/4
f 51/28/1 97/248/1 91/29/1
f 12/31/1 28/249/1 27/32/1
f 53/34/5 54/250/5 61/35/5
f 70/37/3 71/251/3 82/38/3
f 2/40/6 30/252/6 93/41/6
f 61/43/4 110/253/4 111/44/4
f 17/46/3 94/254/3 126/47/3
f 124/49/6 22/255/6 14/256/6
f 118/257/6 63/258/6 56/259/6
f 124/49/6 14/256/6 118/257/6
f 86/260/6 72/261/6 124/49/6
f 46/262/6 33/263/6 123/51/6
f 123/51/6 86/260/6 124/49/6
f 124/49/6 118/257/6 117/50/6
f 118/257/6 56/259/6 117/50/6
f 117/50/6 46/262/6 123/51/6
f 18/52/5 21/264/5 128/53/5
f 70/55/4 100/265/4 90/56/4
f 48/58/2 89/266/2 79/59/2
f 32/61/5 31/267/5 95/62/5
f 8/64/6 18/268/6 96/65/6
f 14/67/3 15/269/3 119/68/3
f 57/70/5 49/270/5 68/71/5
f 51/73/5 52/271/5 66/74/5
f 28/76/5 116/272/5 114/77/5
f 126/79/6 68/273/6 49/274/6
f 125/275/6 29/276/6 32/277/6
f 126/79/6 49/274/6 125/275/6
f 21/278/6 16/279/6 126/79/6
f 81/280/6 77/281/6 128/81/6
f 128/81/6 21/278/6 126/79/6
f 126/79/6 125/275/6 127/80/6
f 125/275/6 32/277/6 127/80/6
f 127/80/6 81/280/6 128/81/6
f 20/82/2 7/282/2 88/83/2
f 17/85/6 4/283/6 58/86/6
f 44/88/3 109/284/3 112/89/3
f 46/91/3 117/285/3 120/92/3
f 104/94/2 53/286/2 67/287/2
f 103/288/2 11/289/2 27/290/2
f 104/94/2 67/287/2 103/288/2
f 38/291/2 43/292/2 104/94/2
f 75/293/2 83/294/2 105/96/2
f 105/96/2 38/291/2 104/94/2
f 104/94/2 103/288/2 106/95/2
f 103/288/2 27/290/2 106/95/2
f 106/95/2 75/293/2 105/96/2
f 42/97/3 101/295/3 104/98/3
f 10/100/1 26/296/1 25/101/1
f 31/103/6 6/297/6 69/104/6
f 39/106/5 34/298/5 113/107/5
f 26/109/5 108/299/5 106/110/5
f 12/112/3 13/300/3 111/113/3
f 83/115/1 82/301/1 107/116/1
f 52/118/1 53/302/1 104/119/1
f 48/121/5 36/303/5 99/122/5
f 62/124/5 55/304/5 56/125/5
f 49/127/1 50/305/1 93/128/1
f 99/130/2 36/306/2 41/307/2
f 97/308/2 51/309/2 65/310/2
f 99/130/2 41/307/2 97/308/2
f 70/311/2 80/312/2 99/130/2
f 9/313/2 25/314/2 100/132/2
f 100/132/2 70/311/2 99/130/2
f 99/130/2 97/308/2 98/131/2
f 97/308/2 65/310/2 98/131/2
f 98/131/2 9/313/2 100/132/2
f 29/133/3 125/315/3 93/134/3
f 74/136/4 76/316/4 114/137/4
f 120/139/2 57/317/2 60/318/2
f 119/319/2 15/320/2 24/321/2
f 120/139/2 60/318/2 119/319/2
f 35/322/2 47/323/2 120/139/2
f 73/324/2 87/325/2 121/141/2
f 121/141/2 35/322/2 120/139/2
f 120/139/2 119/319/2 122/140/2
f 119/319/2 24/321/2 122/140/2
f 122/140/2 73/324/2 121/141/2
f 15/142/1 16/326/1 21/143/1
f 87/145/3 73/327/3 77/146/3
f 1/148/2 59/328/2 91/149/2
f 32/151/4 29/329/4 47/152/4
f 37/154/5 38/330/5 105/155/5
f 72/157/3 86/331/3 85/158/3
f 45/160/4 34/332/4 33/161/4
f 31/163/4 48/333/4 5/164/4
f 36/166/4 37/334/4 42/167/4
f 102/169/6 66/335/6 52/336/6
f 101/337/6 42/338/6 37/339/6
f 102/169/6 52/336/6 101/337/6
f 26/340/6 10/341/6 102/169/6
f 82/342/6 71/343/6 108/171/6
f 108/171/6 26/340/6 102/169/6
f 102/169/6 101/337/6 107/170/6
f 101/337/6 37/339/6 107/170/6
f 107/170/6 82/342/6 108/171/6
f 66/172/4 102/344/4 103/173/4
f 22/175/5 124/345/5 122/176/5
f 40/178/3 91/346/3 97/179/3
f 1/181/4 40/347/4 30/182/4
f 109/184/6 44/348/6 39/349/6
f 115/350/6 84/351/6 74/352/6
f 109/184/6 39/349/6 115/350/6
f 61/353/6 54/354/6 109/184/6
f 28/355/6 12/356/6 110/186/6
f 110/186/6 61/353/6 109/184/6
f 109/184/6 115/350/6 116/185/6
f 115/350/6 74/352/6 116/185/6
f 116/185/6 28/355/6 110/186/6
f 80/187/1 79/357/1 89/188/1
f 76/358/2 85/359/2 113/360/2
f 113/360/2 34/361/2 45/362/2
f 112/190/2 55/363/2 62/364/2
f 113/360/2 45/362/2 112/190/2
f 114/192/2 76/358/2 113/360/2
f 13/365/2 23/366/2 114/192/2
f 112/190/2 62/364/2 111/191/2
f 111/191/2 13/365/2 114/192/2
f 114/192/2 113/360/2 112/190/2
f 1/193/5 2/367/5 50/194/5
f 77/196/4 78/368/4 96/197/4
f 9/199/3 98/369/3 92/200/3
f 33/202/5 35/370/5 121/203/5
f 20/205/5 90/371/5 100/206/5
f 68/208/4 126/372/4 94/209/4
f 88/211/3 7/373/3 8/212/3
f 71/214/4 75/374/4 106/215/4
f 69/217/3 6/375/3 5/218/3
f 87/220/1 86/376/1 123/221/1
f 64/223/5 58/377/5 4/24/5
f 63/224/4 118/378/4 119/225/4
f 72/227/4 73/379/4 122/228/4
f 85/230/1 84/380/1 115/231/1
f 64/233/4 92/381/4 98/234/4
f 7/236/1 20/382/1 18/237/1
