# Blender 4.0.2
# www.blender.org
mtllib Almacen.mtl
o Cube
v -15.000000 0.000000 -10.662724
v -15.000000 10.000000 -10.662724
v 14.999998 10.000000 -10.662724
v -15.000000 10.000000 10.000003
v 14.999998 0.000000 10.000003
v 14.999998 10.000000 10.000003
v 14.337278 10.000000 -10.000001
v -14.337277 10.000000 -10.000001
v -14.337277 0.000000 -10.000001
v -15.000000 0.000000 10.000003
v 14.337278 10.000000 9.337281
v 14.337280 0.000000 9.337281
v -14.337279 0.000000 9.337278
v -14.337279 10.000000 9.337278
v 0.756326 5.000000 10.000003
v -11.479298 0.000000 10.000003
v -11.479298 5.000000 10.000003
v -5.979298 5.000000 10.000003
v -4.743674 0.000000 10.000003
v 0.756326 0.000000 10.000003
v -5.979298 0.000000 10.000003
v -4.743674 5.000000 10.000003
v -11.479298 5.000000 9.337278
v -4.743674 5.000000 9.337279
v -5.979298 5.000000 9.337279
v -11.479298 0.000000 9.337278
v -5.979298 0.000000 9.337279
v -4.743674 0.000000 9.337279
v 0.756326 5.000000 9.337280
v 0.756326 0.000000 9.337280
v -0.000001 0.000000 -10.662724
v -0.000001 10.000000 -10.662724
v 0.000000 10.000000 -10.000001
v 0.000000 0.000000 -10.000001
v -15.000000 10.000000 -0.331361
v -15.000000 0.000000 -0.331361
v -14.337278 0.000000 -0.331361
v -14.337278 10.000000 -0.331361
v 0.756326 10.000000 10.000003
v 0.756326 10.000000 9.337280
v 14.999998 0.000000 -0.331361
v 14.999998 10.000000 -0.331361
v 14.337278 10.000000 -0.331360
v 14.337279 0.000000 -0.331360
v 14.337278 0.000000 -10.000002
v 14.999998 0.000000 -10.662724
vn -0.0000 -0.0000 -1.0000
vn 1.0000 -0.0000 -0.0000
vn -1.0000 -0.0000 -0.0000
vn -0.0000 -0.0000 1.0000
vn -0.0000 -1.0000 -0.0000
vt 2.632358 0.409456
vt 0.519867 0.015755
vt 0.519867 0.409456
vt -1.573856 0.419150
vt -0.118862 0.025449
vt -0.118862 0.419150
vt 0.519867 0.409456
vt -1.499291 0.015755
vt 0.519867 0.015755
vt 2.632358 0.409457
vt 0.626382 0.409457
vt 0.626382 0.212606
vt -0.322214 0.212606
vt -1.096794 0.212606
vt -1.499292 0.409457
vt -1.480523 0.025449
vt 1.242799 0.419150
vt 1.242799 0.025449
vt -1.592451 0.015755
vt -1.499117 0.212606
vt -1.592451 0.212606
vt -1.499117 0.015755
vt -1.536139 0.433868
vt 0.070031 0.487971
vt 0.070031 0.433868
vt 0.430870 0.433868
vt 2.037040 0.487971
vt 2.037040 0.433868
vt -1.592625 0.015755
vt -1.592625 0.409456
vt 2.539025 0.409456
vt 2.539025 0.015755
vt 1.336132 0.025449
vt 1.336132 0.419150
vt -0.322214 0.015755
vt -0.148198 0.212606
vt 2.539025 0.015755
vt 0.626382 0.015755
vt -1.480523 0.419150
vt -1.480523 0.025449
vt 2.632358 0.015755
vt -1.573856 0.025449
vt -1.499291 0.409456
vt 2.632358 0.015755
vt -1.096794 0.015755
vt -1.499292 0.015755
vt -0.148198 0.015755
vt -1.480523 0.419150
vt -0.118862 0.419150
vt -1.536139 0.487971
vt 0.430870 0.487971
vt -1.592625 0.409457
vt -1.592625 0.015755
vt 2.539025 0.409457
s 0
usemtl Material
f 3/1/1 31/2/1 32/3/1
f 6/4/2 41/5/2 42/6/2
f 36/5/3 4/4/3 35/6/3
f 33/7/4 9/8/4 34/9/4
f 6/10/4 39/11/4 15/12/4
f 25/13/1 23/14/1 14/15/1
f 38/6/2 13/16/2 37/5/2
f 44/5/3 7/17/3 45/18/3
f 16/19/2 23/20/2 17/21/2
f 21/19/3 25/20/3 27/22/3
f 17/23/5 25/24/5 18/25/5
f 19/19/2 24/20/2 22/21/2
f 20/19/3 29/20/3 30/22/3
f 22/26/5 29/27/5 15/28/5
f 32/3/1 1/29/1 2/30/1
f 7/31/4 34/9/4 45/32/4
f 1/33/3 35/6/3 2/34/3
f 8/17/2 37/5/2 9/18/2
f 18/13/4 21/35/4 22/36/4
f 12/37/1 30/38/1 29/12/1
f 11/39/3 44/5/3 12/40/3
f 3/34/2 41/5/2 46/33/2
f 3/1/1 46/41/1 31/2/1
f 6/4/2 5/42/2 41/5/2
f 36/5/3 10/42/3 4/4/3
f 33/7/4 8/43/4 9/8/4
f 15/12/4 20/38/4 5/44/4
f 5/44/4 6/10/4 15/12/4
f 23/14/1 26/45/1 13/46/1
f 14/15/1 40/11/1 25/13/1
f 40/11/1 29/12/1 24/36/1
f 24/36/1 28/47/1 27/35/1
f 40/11/1 24/36/1 25/13/1
f 23/14/1 13/46/1 14/15/1
f 24/36/1 27/35/1 25/13/1
f 38/6/2 14/48/2 13/16/2
f 44/5/3 43/49/3 7/17/3
f 16/19/2 26/22/2 23/20/2
f 21/19/3 18/21/3 25/20/3
f 17/23/5 23/50/5 25/24/5
f 19/19/2 28/22/2 24/20/2
f 20/19/3 15/21/3 29/20/3
f 22/26/5 24/51/5 29/27/5
f 32/3/1 31/2/1 1/29/1
f 7/31/4 33/7/4 34/9/4
f 1/33/3 36/5/3 35/6/3
f 8/17/2 38/6/2 37/5/2
f 22/36/4 15/12/4 39/11/4
f 4/52/4 10/53/4 17/14/4
f 10/53/4 16/45/4 17/14/4
f 22/36/4 39/11/4 18/13/4
f 39/11/4 4/52/4 18/13/4
f 21/35/4 19/47/4 22/36/4
f 4/52/4 17/14/4 18/13/4
f 29/12/1 40/11/1 11/54/1
f 11/54/1 12/37/1 29/12/1
f 11/39/3 43/49/3 44/5/3
f 3/34/2 42/6/2 41/5/2
o Cube.002
v -15.336710 10.000000 10.357280
v -15.336710 10.641253 10.357280
v -15.336710 10.000000 -10.944902
v -15.336710 10.641253 -10.944902
v 14.999998 10.000000 10.357280
v 14.999998 10.641253 10.357280
v 14.999998 10.000000 -10.944902
v 14.999998 10.641253 -10.944902
vn -1.0000 -0.0000 -0.0000
vn -0.0000 -0.0000 -1.0000
vn 1.0000 -0.0000 -0.0000
vn -0.0000 -0.0000 1.0000
vn -0.0000 -1.0000 -0.0000
vn -0.0000 1.0000 -0.0000
vt 0.064266 0.681331
vt 0.690910 0.676058
vt 0.064266 0.676058
vt 0.062290 0.681806
vt 0.954702 0.676533
vt 0.062290 0.676533
vt 0.690910 0.681331
vt 0.954702 0.681807
vt 0.512521 0.870206
vt -0.161540 0.599331
vt 0.516764 0.600164
vt 1.191251 0.871039
vt 0.517191 0.600164
vt 1.195494 0.600997
vt 0.954702 0.681806
vt 0.062290 0.681807
vt -0.165783 0.869373
vt 0.512948 0.870206
s 0
usemtl Material
f 48/55/6 49/56/6 47/57/6
f 50/58/7 53/59/7 49/60/7
f 54/61/8 51/57/8 53/56/8
f 52/62/9 47/60/9 51/59/9
f 53/63/10 47/64/10 49/65/10
f 50/66/11 52/67/11 54/68/11
f 48/55/6 50/61/6 49/56/6
f 50/58/7 54/69/7 53/59/7
f 54/61/8 52/55/8 51/57/8
f 52/62/9 48/70/9 47/60/9
f 53/63/10 51/71/10 47/64/10
f 50/66/11 48/72/11 52/67/11
